<svg id="ed753c92-cc5a-427d-be00-d0ef88b4673e" data-name="图层 1" xmlns="http://www.w3.org/2000/svg" xmlns:xlink="http://www.w3.org/1999/xlink" viewBox="0 0 283.46 283.46">
  <defs>
    <style>
      .bd984307-0639-4ec5-a58d-5cc8d1f2bd59 {
        mask: url(#edf64ed9-1311-4269-a703-db5be14ca78f);
        filter: url(#efc2e4a7-d569-4c7d-b202-58cfeb36e639);
      }

      .a3d6f84a-b330-48fd-ba96-d8981876875c, .b58b738d-969c-4294-a447-663af1c876e5, .bede6430-1f4b-4874-9c1b-ab8839a52996 {
        mix-blend-mode: multiply;
      }

      .bede6430-1f4b-4874-9c1b-ab8839a52996 {
        fill: url(#eea73fad-990e-4c5b-b78d-723d7cc8b880);
      }

      .e8ccb496-885a-4c23-9626-168ed2672b30 {
        mask: url(#f92fb4f6-dc89-4b30-a899-ee5cfe97fb22);
        filter: url(#a82e7fe0-3f25-427c-8693-9097195ebac2);
      }

      .a3d6f84a-b330-48fd-ba96-d8981876875c {
        fill: url(#e11363d2-531b-49e7-a04c-684c57bfc271);
      }

      .b9c41334-8ad1-438b-a6b3-d2bc35543a30 {
        mask: url(#aaf960e3-4c13-4824-8136-b1071cbc4615);
        filter: url(#a9ac93ce-c05c-4f71-a215-888caee6b4dd);
      }

      .b58b738d-969c-4294-a447-663af1c876e5 {
        fill: url(#f9bf11a1-cf82-4f75-950b-6f76c32b5d2a);
      }

      .ee0f85fd-bf45-4dfd-9f43-74da5ab381cc {
        mask: url(#a8ba7931-6c57-4543-929a-6c143fc98b92);
      }

      .a04064d9-2089-4b74-9c80-68768705d75b {
        opacity: 0.8;
        fill: url(#b8afec91-dc20-4ae4-9991-628a8714533b);
      }

      .b4c7c72c-d1e5-43a4-90f8-0a1e53e70f55 {
        fill: #ffda90;
      }

      .e971c43a-27aa-4ac2-b982-e26feeffa0fa {
        fill: #ffd67c;
      }

      .bf09ae79-0e90-452d-a772-46b81082ec59 {
        fill: #ffce54;
      }

      .bc455b82-471b-41a6-91b5-9b842cb95855 {
        fill: #ffcb44;
      }

      .bb57c133-9b88-486a-b88a-1b24c75a694e {
        fill: #ffb600;
      }

      .b9cb82f1-5ad8-41c2-a741-4ff08d69702b {
        fill: #a3c75e;
      }

      .b0be74d7-6ec8-471e-824a-72f5746ba629 {
        fill: #d8e09e;
      }

      .a7ab64e7-c8e8-414a-b9a6-2a7054090e69 {
        fill: #57bb88;
      }

      .a16c924f-150d-4124-b8fd-23e10494a4e9 {
        fill: #8dd2d0;
      }

      .baf9bfb0-2122-4674-8e1f-e34a5b261451 {
        mask: url(#a5932864-b25b-4b6c-8abf-87c963b70097);
      }

      .a12f2489-306d-4ca3-af1c-5b44291fcb28 {
        fill: url(#b82c7692-d6b6-4fee-804a-ee19c152dd50);
      }

      .a1841f23-63cb-47e7-b9ec-2d39acc872c0 {
        fill: #f1e9d6;
      }

      .ab183033-dc2c-4de4-9a1c-c3f2feb90736 {
        fill: #eee2d4;
      }

      .ea4adf16-9f00-4071-b5e7-517cf20f3225 {
        fill: #53c5d4;
      }

      .e4aba348-b57e-4360-847d-4a38b00f3d3b {
        mask: url(#a39f49bd-b7d9-4e51-8b9f-7d10e6013358);
      }

      .abf025a1-bf73-48d1-86a4-0dc290cf47f6 {
        fill: url(#baf54051-ecb3-43a5-8ddd-52d00333d262);
      }

      .ec23047f-7797-4d24-a9e0-e89b13b1d53a {
        fill: #eee9d4;
      }

      .a14fe61c-c991-4215-8c5f-b74d86afb082 {
        fill: #e6dfcb;
      }

      .a717a672-2260-4ea8-af6e-3c71a20a3dd9 {
        fill: #00b2c0;
      }

      .b01e1299-e9fe-4ec0-b660-7fcf3b1bb558 {
        fill: #cdc781;
      }

      .b7aaa55d-7afd-4529-ba2a-ebe9c3f7d022 {
        fill: #e88246;
      }

      .b2e82d89-8544-487a-89a0-89b43a72a3f6 {
        fill: #f59b6e;
      }

      .ecae6a8e-94f7-4ecd-b0a6-31ab6ea3a0f9 {
        fill: #ece0c6;
      }

      .be02fcf0-f10d-4d7e-8879-3bf3298b3794 {
        fill: #e0d5bd;
      }

      .b30da91f-f520-4cc8-b5ba-a93243e95eb9 {
        fill: #ede7ca;
      }

      .ab0e3fcc-3359-4b2f-a704-62833c786b5c {
        fill: none;
      }

      .a6aac7d4-6601-4f62-9433-8ee1c1a46e4d {
        fill: #d9cfb7;
      }

      .ae47d5e7-65b1-47f1-9769-2fa9e4734a5d {
        fill: #64cbe4;
      }

      .a96aad40-8b7f-44c3-aa31-72f63881d0e8 {
        fill: #66ae70;
      }

      .b4518e35-16ff-4bfa-9ff5-452c4285393e {
        fill: #408443;
      }

      .bb383acf-064e-40fb-a5c9-04b66e5a7cd9 {
        fill: #6dbe7a;
      }

      .a1b2d462-b6fd-4677-bfae-bb5003beca0a {
        fill: #479651;
      }

      .b281cbe4-09c4-472c-adb7-60a11fc0e64b {
        fill: #5cc3c0;
      }

      .ac27d835-b1f0-4351-981f-0f2b48954d8f {
        fill: #54c2bc;
      }

      .ad6ae863-940c-45a2-a0ac-e975c71dab5b {
        fill: #009b92;
      }

      .e3bab07b-4400-493d-aac1-dcc694bdb0bd {
        fill: #008e85;
      }

      .f8a716fa-c699-4892-bf02-5de2f68b72e8 {
        fill: #54905c;
      }

      .a73c20f3-c18b-4f7e-b1d0-1f288d14301a {
        fill: #316b35;
      }

      .ff02f906-6855-452f-bced-945a83ec6ab6 {
        fill: #63a469;
      }

      .b7dc8e3f-308a-4768-ba27-cb857a52c92d {
        fill: #367f40;
      }

      .b2e6c8b5-59a7-44c2-9b84-c133061ba30a {
        fill: #f4eccd;
      }

      .a69d1a86-671b-4333-b3e3-c67cdc68ac0c {
        fill: #efe7ca;
      }

      .e21b4ecd-b2e8-4e34-8850-4c861926b090 {
        fill: url(#a5201fcc-aa34-4d40-9104-2b0bf728c7d0);
      }

      .fdbdd905-6453-4791-ac10-dd1c54840837 {
        fill: #e7dcc1;
      }

      .f35f8399-394f-4442-9926-9c46d08e46a5 {
        fill: url(#e5375c22-e7f4-44c2-b541-4d72a0e5d199);
      }

      .a1175117-5da8-4884-aab7-5db82dc0f55d {
        fill: #16bab1;
      }

      .a142ec26-00bb-4927-bf15-7faaa9c38387 {
        fill: #13afa4;
      }

      .b19eb47f-22a8-480b-83a3-e3b06c6343fd {
        fill: #68b273;
      }

      .f646282e-c8e8-499f-9289-9d1f9f19c7aa {
        fill: #418a47;
      }

      .abf2a8f7-4853-43b1-8831-9b551d975567 {
        fill: #00827c;
      }

      .a46ed325-90f7-41ee-9027-5ee9586c0d45 {
        fill: #007e73;
      }

      .bc903f8c-455c-45a4-ba48-e5717e0f1b8b {
        fill: #00928a;
      }

      .e96f1581-4152-4e0c-9d69-0258fb207d05 {
        fill: #007b72;
      }

      .fe290198-3655-4989-bf17-28bf4f90f7f2 {
        fill: #5d9e65;
      }

      .a3669f54-bccf-49b4-bdff-95da26a68036 {
        fill: #31793d;
      }

      .b0eea4bf-22cb-4327-a62d-5326957d2b22 {
        fill: #6cb977;
      }

      .aaf422ff-6317-4e1e-bb00-2faec36bf945 {
        fill: #3d924d;
      }

      .bf90bfc6-9848-42ec-8a85-3d0dc006fb69 {
        filter: url(#a34281d4-0bb0-48b9-a7dd-438cf323a408);
      }

      .e1e4a788-999c-454f-8c47-7ddfb4cd0ff4 {
        filter: url(#aa02993f-2b75-4d03-b6f0-2a85998c2d54);
      }

      .a9e51cd3-7be1-4429-97fd-7aafe65b868d {
        filter: url(#e2b549ca-2a22-486b-b0b5-2b3ef0cfbee4);
      }
    </style>
    <filter id="e2b549ca-2a22-486b-b0b5-2b3ef0cfbee4" x="25.1" y="-8334" width="202.97" height="32766" filterUnits="userSpaceOnUse" color-interpolation-filters="sRGB">
      <feFlood flood-color="#fff" result="bg"/>
      <feBlend in="SourceGraphic" in2="bg"/>
    </filter>
    <mask id="edf64ed9-1311-4269-a703-db5be14ca78f" x="25.1" y="-8334" width="202.97" height="32766" maskUnits="userSpaceOnUse">
      <g class="a9e51cd3-7be1-4429-97fd-7aafe65b868d"/>
    </mask>
    <linearGradient id="eea73fad-990e-4c5b-b78d-723d7cc8b880" x1="25.1" y1="139.96" x2="228.07" y2="139.96" gradientUnits="userSpaceOnUse">
      <stop offset="0" stop-color="#fff"/>
      <stop offset="1"/>
    </linearGradient>
    <filter id="aa02993f-2b75-4d03-b6f0-2a85998c2d54" x="172.18" y="-8334" width="39.49" height="32766" filterUnits="userSpaceOnUse" color-interpolation-filters="sRGB">
      <feFlood flood-color="#fff" result="bg"/>
      <feBlend in="SourceGraphic" in2="bg"/>
    </filter>
    <mask id="f92fb4f6-dc89-4b30-a899-ee5cfe97fb22" x="172.18" y="-8334" width="39.49" height="32766" maskUnits="userSpaceOnUse">
      <g class="e1e4a788-999c-454f-8c47-7ddfb4cd0ff4"/>
    </mask>
    <linearGradient id="e11363d2-531b-49e7-a04c-684c57bfc271" x1="172.18" y1="87.49" x2="211.66" y2="87.49" xlink:href="#eea73fad-990e-4c5b-b78d-723d7cc8b880"/>
    <filter id="a34281d4-0bb0-48b9-a7dd-438cf323a408" x="182.54" y="-8334" width="64.37" height="32766" filterUnits="userSpaceOnUse" color-interpolation-filters="sRGB">
      <feFlood flood-color="#fff" result="bg"/>
      <feBlend in="SourceGraphic" in2="bg"/>
    </filter>
    <mask id="aaf960e3-4c13-4824-8136-b1071cbc4615" x="182.54" y="-8334" width="64.37" height="32766" maskUnits="userSpaceOnUse">
      <g class="bf90bfc6-9848-42ec-8a85-3d0dc006fb69"/>
    </mask>
    <linearGradient id="f9bf11a1-cf82-4f75-950b-6f76c32b5d2a" x1="182.54" y1="89.61" x2="246.91" y2="89.61" xlink:href="#eea73fad-990e-4c5b-b78d-723d7cc8b880"/>
    <filter id="efc2e4a7-d569-4c7d-b202-58cfeb36e639" x="25.1" y="38.37" width="202.97" height="203.18" filterUnits="userSpaceOnUse" color-interpolation-filters="sRGB">
      <feFlood flood-color="#fff" result="bg"/>
      <feBlend in="SourceGraphic" in2="bg"/>
    </filter>
    <mask id="a8ba7931-6c57-4543-929a-6c143fc98b92" x="25.1" y="38.37" width="202.97" height="203.18" maskUnits="userSpaceOnUse">
      <g class="bd984307-0639-4ec5-a58d-5cc8d1f2bd59">
        <path class="bede6430-1f4b-4874-9c1b-ab8839a52996" d="M212.8,82.9c-8.85-5.09-19.23-6.66-29.34-8.08C178.29,74.1,172,72.38,171,67.26c-1.27-6.42,4.8-11.77,8.87-16.89,4.26-5.37,5-10.56-1.7-11.6-7.31-1.14-22.73.47-29.72,1.11-8,.73-16.23-.66-24.35.15A119.4,119.4,0,0,0,75.91,55.51c-3.42,2-6.84,4.25-9,7.59s-2.63,8-.2,11.13c3,3.8,9.05,4.16,11.69,8.19,2.24,3.43.87,8.3-2.07,11.16s-7,4.17-11,5.19c-6.08,1.55-12.34,2.68-18,5.4s-10.8,7.36-12.29,13.46,1.83,13.5,7.93,15c5.21,1.27,11.2-1.73,15.85.95,5.22,3,4.52,11.37.26,15.63s-10.54,5.57-16.39,7-12.12,3.48-15.46,8.49c-4.47,6.67-1.58,16.38,4.65,21.46s14.76,6.34,22.78,6c4.2-.19,8.49-.75,12.52.42s7.78,4.71,7.52,8.9c-.35,5.52-6.69,8.26-11.94,10S51.34,216.73,52,222.23s7.39,7.57,12.85,8.38l48.62,7.15c27.25,4,56.58,7.7,81.06-4.91,5.81-3,11.29-7,14.85-12.43s5-12.62,2.52-18.67c-5.38-13.27-25.36-15.43-31-28.6-3.78-8.85.77-19.33,7.66-26.05s15.81-10.9,23.68-16.45,15.12-13.41,15.81-23C228.75,97.45,221.65,88,212.8,82.9Z"/>
      </g>
    </mask>
    <linearGradient id="b8afec91-dc20-4ae4-9991-628a8714533b" x1="25.1" y1="139.96" x2="228.07" y2="139.96" gradientUnits="userSpaceOnUse">
      <stop offset="0" stop-color="#f4eaeb"/>
      <stop offset="1" stop-color="#fff"/>
    </linearGradient>
    <filter id="a82e7fe0-3f25-427c-8693-9097195ebac2" x="172.18" y="73.61" width="39.49" height="27.76" filterUnits="userSpaceOnUse" color-interpolation-filters="sRGB">
      <feFlood flood-color="#fff" result="bg"/>
      <feBlend in="SourceGraphic" in2="bg"/>
    </filter>
    <mask id="a5932864-b25b-4b6c-8abf-87c963b70097" x="172.18" y="73.61" width="39.49" height="27.76" maskUnits="userSpaceOnUse">
      <g class="e8ccb496-885a-4c23-9626-168ed2672b30">
        <path class="a3d6f84a-b330-48fd-ba96-d8981876875c" d="M209.92,74.38a8.2,8.2,0,0,0-3.48-.76c-1.35,0-2.7.08-4.05.16-1.52.09-3,.18-4.56.24-3,.14-6,.23-9,.3a43,43,0,0,0-8.17.72,17.45,17.45,0,0,0-3.8,1.25,2.85,2.85,0,0,0-1.93,2.56c.07,1.09,1.08,1.64,2,1.83,1.2.23,2.43.22,3.63.36a9.28,9.28,0,0,1,1.88.41,3.27,3.27,0,0,1,1.58,1c.48.7-.69.9-1.15,1a14.08,14.08,0,0,1-1.94.24c-2.4.17-5.23,0-7.32,1.39a2.74,2.74,0,0,0-1.4,2.68c.24,1.1,1.41,1.62,2.4,1.86a16.67,16.67,0,0,0,4.17.28c.7,0,1.41,0,2.1,0,.45,0,1.12.17,1.28.66.22.66-.61,1.2-1.09,1.43a9.21,9.21,0,0,1-1.75.58,6.24,6.24,0,0,0-3.17,1.47,1.61,1.61,0,0,0-.47,1.42,1.53,1.53,0,0,0,1,1,4.82,4.82,0,0,1,.7.31c.38.25.35.5.1.85a4.09,4.09,0,0,0-.7,1.68,2.53,2.53,0,0,0,.11,1.61.75.75,0,0,0,1.05.38.35.35,0,0,0,0-.58c0-1.22,1.54-2,2.51-2.4a17.23,17.23,0,0,1,3.67-1c1.26-.22,2.53-.38,3.79-.63a13.47,13.47,0,0,0,3.51-1.08,2.8,2.8,0,0,0,1.75-2.31c0-1.1-1-1.69-1.9-2.13a3.21,3.21,0,0,1-1.4-1.06c-.38-.62,0-1.18.51-1.58a5.86,5.86,0,0,1,3.12-1c1.12-.11,2.24-.11,3.35-.27a5.07,5.07,0,0,0,3-1.24,1.55,1.55,0,0,0-.06-2.33,7.72,7.72,0,0,0-1-.69c-.29-.19-.65-.42-.75-.77-.17-.63.54-1.12,1-1.35a5.26,5.26,0,0,1,1.8-.47c1.33-.15,2.66-.21,4-.42a30.45,30.45,0,0,0,4.22-1c1-.32,2.24-.81,2.52-2S210.85,74.86,209.92,74.38Z"/>
      </g>
    </mask>
    <linearGradient id="b82c7692-d6b6-4fee-804a-ee19c152dd50" x1="172.18" y1="87.49" x2="211.66" y2="87.49" xlink:href="#b8afec91-dc20-4ae4-9991-628a8714533b"/>
    <filter id="a9ac93ce-c05c-4f71-a215-888caee6b4dd" x="182.54" y="66.98" width="64.37" height="45.26" filterUnits="userSpaceOnUse" color-interpolation-filters="sRGB">
      <feFlood flood-color="#fff" result="bg"/>
      <feBlend in="SourceGraphic" in2="bg"/>
    </filter>
    <mask id="a39f49bd-b7d9-4e51-8b9f-7d10e6013358" x="182.54" y="66.98" width="64.37" height="45.26" maskUnits="userSpaceOnUse">
      <g class="b9c41334-8ad1-438b-a6b3-d2bc35543a30">
        <path class="b58b738d-969c-4294-a447-663af1c876e5" d="M244.07,68.24A13.31,13.31,0,0,0,238.41,67c-2.21-.07-4.41.14-6.61.27q-3.7.22-7.43.4-7.37.33-14.72.47a70.72,70.72,0,0,0-13.32,1.18,28.24,28.24,0,0,0-6.21,2c-1.63.78-3.27,2.18-3.14,4.17.11,1.78,1.76,2.68,3.33,3,1.95.38,4,.35,5.92.59a13.94,13.94,0,0,1,3.06.67,5.22,5.22,0,0,1,2.57,1.59c.78,1.15-1.12,1.47-1.87,1.62a23.93,23.93,0,0,1-3.16.39c-3.91.28-8.53-.06-11.93,2.26-1.4,1-2.68,2.57-2.29,4.36s2.3,2.65,3.92,3a27.58,27.58,0,0,0,6.79.47,30.16,30.16,0,0,1,3.43.06c.73.07,1.82.28,2.09,1.08.35,1.06-1,1.94-1.78,2.32a15.23,15.23,0,0,1-2.86,1c-1.77.48-3.89,1-5.16,2.39a2.7,2.7,0,0,0-.77,2.32,2.46,2.46,0,0,0,1.6,1.57,6.84,6.84,0,0,1,1.14.51c.62.41.56.82.17,1.39a6.71,6.71,0,0,0-1.15,2.74,4,4,0,0,0,.19,2.62,1.22,1.22,0,0,0,1.7.63.58.58,0,0,0,.07-1c0-2,2.51-3.24,4.09-3.92a27,27,0,0,1,6-1.65c2.05-.37,4.12-.63,6.17-1a21.93,21.93,0,0,0,5.72-1.76c1.39-.72,2.93-2,2.86-3.76s-1.68-2.75-3.11-3.47a5.26,5.26,0,0,1-2.27-1.73c-.62-1,0-1.93.82-2.58a9.54,9.54,0,0,1,5.1-1.7c1.81-.18,3.65-.19,5.46-.45s3.67-.71,4.89-2a2.54,2.54,0,0,0-.1-3.8A13.14,13.14,0,0,0,226,82.12c-.48-.31-1.06-.68-1.22-1.26-.28-1,.88-1.81,1.65-2.19a8.57,8.57,0,0,1,2.94-.76c2.17-.25,4.35-.35,6.51-.7a51,51,0,0,0,6.89-1.62c1.69-.52,3.64-1.32,4.09-3.25S245.59,69,244.07,68.24Z"/>
      </g>
    </mask>
    <linearGradient id="baf54051-ecb3-43a5-8ddd-52d00333d262" x1="182.54" y1="89.61" x2="246.91" y2="89.61" xlink:href="#b8afec91-dc20-4ae4-9991-628a8714533b"/>
    <linearGradient id="a5201fcc-aa34-4d40-9104-2b0bf728c7d0" x1="219.7" y1="154.36" x2="219.7" y2="142.19" gradientUnits="userSpaceOnUse">
      <stop offset="0" stop-color="#e7dcc1"/>
      <stop offset="0.99" stop-color="#f8eed3"/>
    </linearGradient>
    <linearGradient id="e5375c22-e7f4-44c2-b541-4d72a0e5d199" x1="205.16" y1="155.08" x2="205.16" y2="143.65" gradientUnits="userSpaceOnUse">
      <stop offset="0" stop-color="#e0d5bd"/>
      <stop offset="0.99" stop-color="#f1ebce"/>
    </linearGradient>
  </defs>
  <g>
    <g class="ee0f85fd-bf45-4dfd-9f43-74da5ab381cc">
      <path class="a04064d9-2089-4b74-9c80-68768705d75b" d="M212.8,82.9c-8.85-5.09-19.23-6.66-29.34-8.08C178.29,74.1,172,72.38,171,67.26c-1.27-6.42,4.8-11.77,8.87-16.89,4.26-5.37,5-10.56-1.7-11.6-7.31-1.14-22.73.47-29.72,1.11-8,.73-16.23-.66-24.35.15A119.4,119.4,0,0,0,75.91,55.51c-3.42,2-6.84,4.25-9,7.59s-2.63,8-.2,11.13c3,3.8,9.05,4.16,11.69,8.19,2.24,3.43.87,8.3-2.07,11.16s-7,4.17-11,5.19c-6.08,1.55-12.34,2.68-18,5.4s-10.8,7.36-12.29,13.46,1.83,13.5,7.93,15c5.21,1.27,11.2-1.73,15.85.95,5.22,3,4.52,11.37.26,15.63s-10.54,5.57-16.39,7-12.12,3.48-15.46,8.49c-4.47,6.67-1.58,16.38,4.65,21.46s14.76,6.34,22.78,6c4.2-.19,8.49-.75,12.52.42s7.78,4.71,7.52,8.9c-.35,5.52-6.69,8.26-11.94,10S51.34,216.73,52,222.23s7.39,7.57,12.85,8.38l48.62,7.15c27.25,4,56.58,7.7,81.06-4.91,5.81-3,11.29-7,14.85-12.43s5-12.62,2.52-18.67c-5.38-13.27-25.36-15.43-31-28.6-3.78-8.85.77-19.33,7.66-26.05s15.81-10.9,23.68-16.45,15.12-13.41,15.81-23C228.75,97.45,221.65,88,212.8,82.9Z"/>
    </g>
    <g>
      <g>
        <circle class="b4c7c72c-d1e5-43a4-90f8-0a1e53e70f55" cx="191.11" cy="101.72" r="67.26" transform="translate(-15.95 164.93) rotate(-45)"/>
        <circle class="e971c43a-27aa-4ac2-b982-e26feeffa0fa" cx="191.11" cy="101.72" r="53.5" transform="translate(-9.09 19.33) rotate(-5.65)"/>
        <circle class="bf09ae79-0e90-452d-a772-46b81082ec59" cx="191.11" cy="101.72" r="46.5"/>
        <circle class="bc455b82-471b-41a6-91b5-9b842cb95855" cx="191.11" cy="101.72" r="38.25"/>
      </g>
      <path class="bb57c133-9b88-486a-b88a-1b24c75a694e" d="M213.19,70.5a38.24,38.24,0,0,1-53.3,53.3,38.24,38.24,0,1,0,53.3-53.3Z"/>
    </g>
    <g>
      <path class="b9cb82f1-5ad8-41c2-a741-4ff08d69702b" d="M70.5,164.53a84.48,84.48,0,0,0,169,0Z"/>
      <path class="b0be74d7-6ec8-471e-824a-72f5746ba629" d="M219.29,179.78c-4.12-.4-8.37-.64-12.32.59-2.17.67-4.49,2.24-4.43,4.51,0,1.32.9,2.5,1,3.81.13,1.94-1.53,3.62-3.37,4.25a16,16,0,0,1-5.78.38,55.07,55.07,0,0,0-19.56,2.85c-2.64.89-5.65,2.61-5.65,5.4a4.71,4.71,0,0,0,2.4,3.8,10.88,10.88,0,0,0,4.48,1.28,17.46,17.46,0,0,1,4.73.84,4.37,4.37,0,0,1,2.91,3.53c.1,2.24-2.21,3.89-4.42,4.25s-4.49-.09-6.71.24-4.56,1.91-4.54,4.15c0,2.55,3,4,5.54,4.17,3.69.21,7.29-1.08,11-1.44s7.95.54,9.76,3.76c.81,1.44,1.19,3.37,2.72,4,1.78.73,3.56-.87,5.27-1.76,2.66-1.39,5.74-1.06,8.79-.69a84.38,84.38,0,0,0,27.37-50,16.7,16.7,0,0,1-6.76,2.45C227.58,180.75,223.41,180.19,219.29,179.78Z"/>
      <g>
        <path class="a7ab64e7-c8e8-414a-b9a6-2a7054090e69" d="M196.38,202.1c.11.15,0-.06-.08-.09a1,1,0,0,0-.5-.28h0a.42.42,0,0,0-.18-.13,2.5,2.5,0,0,1-.39-.23,2.77,2.77,0,0,1-.34-.2.64.64,0,0,0-1,.13,1.24,1.24,0,0,0,.4,1.59,2.52,2.52,0,0,0,.69.36.9.9,0,0,1,.39.25.75.75,0,0,0,1.17-.16,1,1,0,0,0,0-1Z"/>
        <path class="a7ab64e7-c8e8-414a-b9a6-2a7054090e69" d="M200.32,204.17a.68.68,0,0,0-1-.29l-.11,0a.75.75,0,0,0-.16,1.16,1.09,1.09,0,0,0,.27.42,1.22,1.22,0,0,0,1.53.11.84.84,0,0,0,.38-.67.81.81,0,0,0-.23-.55A.72.72,0,0,0,200.32,204.17Z"/>
        <path class="a7ab64e7-c8e8-414a-b9a6-2a7054090e69" d="M203.26,208.49A1,1,0,0,1,203,208a.43.43,0,0,0-.84.12,3.25,3.25,0,0,0,0,.54,1.55,1.55,0,0,0,0,.23s0,.25.05.11a.63.63,0,1,0,.95-.54Z"/>
        <path class="a7ab64e7-c8e8-414a-b9a6-2a7054090e69" d="M188.76,199.26a.42.42,0,0,0-.31.31.47.47,0,0,0,.33.58.55.55,0,0,0,.59-.18.5.5,0,0,0,0-.63A.44.44,0,0,0,188.76,199.26Z"/>
        <path class="a7ab64e7-c8e8-414a-b9a6-2a7054090e69" d="M227,185a1.36,1.36,0,0,0-1.92-.23,1,1,0,0,0-.29.29,2.73,2.73,0,0,1-2.21-1.28c-.84-1.54.55-3.3,1.75-4.59a7.08,7.08,0,0,0,1.87-3,2.82,2.82,0,0,0-1.14-3.13,13,13,0,0,0-2.43-.58c-.79-.25-1.53-1.17-1.08-1.87.18-.29.51-.44.74-.69a1.7,1.7,0,0,0-.68-2.48,3.94,3.94,0,0,0-2.89-.05,9.47,9.47,0,0,1-2.9.58c-1.39-.07-2.58-1-3.8-1.61a23.55,23.55,0,0,0-9-2.24c-5.3-.51-10.63-.63-15.95-.75-2.65-.05-17.5-.23-15,5.78.46,1.1,1.63,2.17,1.12,3.25-.3.64-1,.89-1.67,1.21s-1.25,1-1,1.62c.32.92,1.79.68,2.47,1.39s.18,1.93-.47,2.7-1.46,1.66-1.22,2.63a2.12,2.12,0,0,0,2,1.37,25.35,25.35,0,0,0,2.6-.23,5.54,5.54,0,0,1,5.5,5.6c0,.95-.28,2.1.48,2.67a1.84,1.84,0,0,0,1.95-.1,12.82,12.82,0,0,1,1.77-1.07,2.48,2.48,0,0,1,2.85,3.79l.64.46a1.27,1.27,0,0,0,.29,1.27,4.52,4.52,0,0,0,1.25.75c.66.4.79,1,1,1.64a3.45,3.45,0,0,0,2.12,2.07c1.37.63,2.72,1.3,4.11,1.88a4.71,4.71,0,0,0,3.05.36l3.53,1.48c.8.34,1.95.57,2.36-.19l.48,1,5.43.12a7.86,7.86,0,0,0,4.38-.76c1.27-.8,1.95-2.72.95-3.84-.35-.4-.88-.66-1.13-1.14-.4-.78.14-1.7.65-2.41l.25-.36a3,3,0,0,0,2.1-.51.4.4,0,0,0,.56.26,1.32,1.32,0,0,0,.68-.86,2.1,2.1,0,0,0,1.82-.52,1.85,1.85,0,0,0,.59-1.54c-.06-.73-.47-1,.14-1.53a2.29,2.29,0,0,0,.82-1.18,4.55,4.55,0,0,1,.13-.89,2,2,0,0,1,.46-.57,5.87,5.87,0,0,0,1.79-1.72.86.86,0,0,0-.08-1A1,1,0,0,0,227,185Z"/>
      </g>
      <path class="b0be74d7-6ec8-471e-824a-72f5746ba629" d="M144.25,243.12c-1.56-2.75-6.43-2.42-7.44-5.4-.76-2.24,1.34-4.36,3.3-5.67s4.27-2.94,4.16-5.3-3-3.95-5.48-4.15c-3-.23-6,.55-9,1.2s-6.06,1.17-9,.41-5.65-3.12-5.91-6.14c-.18-2.16.88-4.26.83-6.42-.09-3.5-3.11-6.35-6.43-7.45s-6.91-.86-10.4-.77-7.16,0-10.22-1.69-5.26-5.43-4.09-8.73c.64-1.79,2.12-3.14,3.23-4.69s1.85-3.7.84-5.32c-1.46-2.37-5.7-2.15-6.56-4.8a3.89,3.89,0,0,1,1.3-3.77c1.83-1.78,4.6-2.75,5-5.58a2.85,2.85,0,0,0-2-3.46c-1.76-.64-3.89-.41-5.73-.66l-1.29-.2H70.5a84.49,84.49,0,0,0,72.77,83.66C144.49,246.64,145.18,244.76,144.25,243.12Z"/>
      <g>
        <path class="a7ab64e7-c8e8-414a-b9a6-2a7054090e69" d="M168.56,213.51c-.72-.23-1.58-.79-1.38-1.52-.71.52-1.73,0-2.35-.57s-1.14-1.43-2-1.71-1.16,0-1.8.55c-.44.26-1-.14-1.13-.64a1.81,1.81,0,0,1,.43-1.41,7,7,0,0,0,.86-1.26,2.51,2.51,0,0,0-2.07-3.17l-.11-.89a3,3,0,0,1-2.85-.45c-.35-.28-.64-.64-1-.95a11.22,11.22,0,0,0-2-1.47l-1.9-1.17a27.71,27.71,0,0,0-5.14-2.7c.27.45-.37,1-.89.9a11.44,11.44,0,0,1-1.47-.57,3.29,3.29,0,0,0-2.35.53,1.35,1.35,0,0,0-.39-.47,1.78,1.78,0,0,0-1.86,0A2.1,2.1,0,0,0,138,199c-.61.39-1.33.81-1.73.73s-.91-1-1.42-1.19a2.43,2.43,0,0,0-2,.1l-4.43-.76a2.7,2.7,0,0,1,0-2.64,4.82,4.82,0,0,0,.66-2.65,3.94,3.94,0,0,0-1.72-2.19l-2.21.22,0-1a.65.65,0,0,1-.9-.3,2,2,0,0,1-.1-1.06l.27-2.75a2.47,2.47,0,0,0-.11-1.35.87.87,0,0,0-1.13-.46c0-.25,0-.51,0-.77a1.67,1.67,0,0,0-1.91.27,5,5,0,0,0-1.13,1.7c-.32.69-.65,1.39-1,2.08l-2.13-.08a1.22,1.22,0,0,0-1.14-1.59c-1.16-1-1.36-1.85-2.35-3a4,4,0,0,1-1-1.88,4.24,4.24,0,0,1,.93-2.7,4.7,4.7,0,0,1,2-2c1-.39,2.14,0,3.23,0s2.43-.42,2.53-1.5c.14.8,1.31.88,2,.48s1.28-1.1,2.09-1.21a2.34,2.34,0,0,1,1.89.79c.5.49.88,1.11,1.34,1.63a5.8,5.8,0,0,0,.56.55.3.3,0,0,0,.06.19c.42.64.2,1.43.4,2.15a1.73,1.73,0,0,0,1.23,1.26,1.38,1.38,0,0,0,1.47-.56,2.7,2.7,0,0,0,.19-1,8.25,8.25,0,0,0,.91-.86l2.21-1c.63-1.34,1.69-2.18,2.32-3.51l.57-1.23.48-1,1-2.11a40.53,40.53,0,0,0,2-4.72l-7.36.85c-1.19.13-2.39.27-3.58.38a83,83,0,0,1-18.1-.3c-4.68-.59-9.5-1.57-14-.31a15.1,15.1,0,0,0-4.7,2.82,11.67,11.67,0,0,0,.77,5.73,3.24,3.24,0,0,0,1.29,1.47,1.81,1.81,0,0,0,1.89,0,1.59,1.59,0,0,0,.2,2A6.82,6.82,0,0,0,100,178a9.9,9.9,0,0,1,4.82,6.63,8,8,0,0,0,.64,2.47,1.8,1.8,0,0,0,2.12,1l.27.5a5,5,0,0,0,2.13,2.25,10.27,10.27,0,0,0,3.05.76l4.14.6a12.66,12.66,0,0,1,3,.69,12,12,0,0,1,3.06,2.05,4.62,4.62,0,0,1,1.49,1.71,8.15,8.15,0,0,0,.62,1.94,2.81,2.81,0,0,0,1.67.9,25.57,25.57,0,0,0,6.91.75c.29.63.57,1.27.86,1.9,1,2.28-.64,4.85-2.55,6.46a7.35,7.35,0,0,0-1.88,1.76,4.53,4.53,0,0,0-.41,2.42,6.75,6.75,0,0,1-.18,2.46,2,2,0,0,1-1.81,1.44l.63,2.71c-.35.39.15,1.11.57,1.44a6.73,6.73,0,0,1,1.29.93,3.29,3.29,0,0,1,.31,2.23c0,.76.15,1.69.87,2s1.73-.3,2.27.27c.28.3.26.78.47,1.13a1,1,0,0,0,1.1.45,1,1,0,0,0,.74-.93,2.71,2.71,0,0,0,2.12.61c.4-.06.62.14.82.49a2.79,2.79,0,0,1,.3,1.18c.08.82.17,1.63.25,2.45a2,2,0,0,1-.11,1.19c-.53,1-2.43.77-2.72,1.88-.21.83.75,1.48,1,2.29.39,1.14-.63,2.25-1.56,3s-2,1.82-1.65,3a1.52,1.52,0,0,0,1.3,1,3.82,3.82,0,0,0,1.76-.26l3.82-1.19c.91-.28,2-.74,2.13-1.69.78,0,1.37-.72,1.71-1.42a5.21,5.21,0,0,1,1.19-2c1.3-1,3.3,0,4.87-.59,1.11-.39,1.8-1.45,2.64-2.27s2.2-1.41,3.13-.7l1.85-1.67c-.54-.76.4-1.9,1.08-2.53s1.57-1.1,2-1.93a12.67,12.67,0,0,0,.49-2.13,6.75,6.75,0,0,1,2-2.8l4.82-4.61c-.46.14-.87-.45-.77-.92a2.42,2.42,0,0,1,.85-1.14,1.67,1.67,0,0,0,.67-1.22C170.19,214.1,169.29,213.75,168.56,213.51Z"/>
        <path class="a7ab64e7-c8e8-414a-b9a6-2a7054090e69" d="M137,187.14a1.13,1.13,0,0,0,1-1c0-.71-.84-1.11-1.55-1.2a3.47,3.47,0,0,1-2-.56,2,2,0,0,0-1.08-1c-1.17-.62-3.27-2.31-4.65-2.27-.65,0-1.57.67-1.51,1.42s1,1.2,1.45.48l-.27,1.93a5.56,5.56,0,0,1,6,.7c.4.34.76.74,1.18,1.06A2.15,2.15,0,0,0,137,187.14Z"/>
        <path class="a7ab64e7-c8e8-414a-b9a6-2a7054090e69" d="M138.94,188.06a4.28,4.28,0,0,0,2.53.69l3.13.2c.39,0,.89,0,1-.42s-.17-.5-.38-.66C143.73,186.73,140,186,138.94,188.06Z"/>
        <polygon class="a7ab64e7-c8e8-414a-b9a6-2a7054090e69" points="140.59 183.65 140.59 183.66 140.6 183.66 140.59 183.65"/>
        <path class="a7ab64e7-c8e8-414a-b9a6-2a7054090e69" d="M141.14,184a2.86,2.86,0,0,0-.54-.3l.54.3a1,1,0,0,1-.55-.31,1.22,1.22,0,0,0-.42-.09c-.37,0-.77.26-.75.62s.54.65,1,.74l1.34.3c.3.07.67.12.87-.12a.61.61,0,0,0-.21-.84,2.1,2.1,0,0,0-.93-.24Z"/>
        <path class="a7ab64e7-c8e8-414a-b9a6-2a7054090e69" d="M134,188.09a.8.8,0,0,0-.54.84,2.67,2.67,0,0,0,1,.85.92.92,0,0,0,1.15-.29.9.9,0,0,0-.26-1.09,2.14,2.14,0,0,0-1.13-.4l.11.08A.8.8,0,0,0,134,188.09Z"/>
        <path class="a7ab64e7-c8e8-414a-b9a6-2a7054090e69" d="M123.72,210.46a2.35,2.35,0,0,0-1.14-.32l.29,0a1,1,0,0,0-1.3.52,1,1,0,0,0,.55,1.29,2,2,0,0,0,1,0,1.25,1.25,0,0,0,.92-.44A.83.83,0,0,0,123.72,210.46Z"/>
        <path class="a7ab64e7-c8e8-414a-b9a6-2a7054090e69" d="M118.83,210.16a.56.56,0,0,0-.59.15.65.65,0,0,0,.16.9.8.8,0,0,0,.95-.1,1,1,0,0,0,.29-.94Z"/>
        <path class="a7ab64e7-c8e8-414a-b9a6-2a7054090e69" d="M120.47,207.94c-.42-.13-1-.17-1.18.25s.24.76.63.78a1.84,1.84,0,0,0,1.08-.4l-.32.34c.12.18.44.11.54-.09a.54.54,0,0,0-.16-.59A1.42,1.42,0,0,0,120.47,207.94Z"/>
        <path class="a7ab64e7-c8e8-414a-b9a6-2a7054090e69" d="M152.32,197.13h-.21l.11,0a.32.32,0,0,0-.15.13.65.65,0,0,0,.2.82,2,2,0,0,0,.84.36,1.67,1.67,0,0,1,.8.42,1.79,1.79,0,0,0-1.24-1.69A.42.42,0,0,0,152.32,197.13Z"/>
        <path class="a7ab64e7-c8e8-414a-b9a6-2a7054090e69" d="M151.39,195.13l0,0,1.25-.32a1.33,1.33,0,0,0-1.06-.86c-.48,0-.93.56-.66,1A.51.51,0,0,0,151.39,195.13Z"/>
        <path class="a7ab64e7-c8e8-414a-b9a6-2a7054090e69" d="M136.89,180.75a.44.44,0,0,0,0-.87.43.43,0,0,0-.43.43A.44.44,0,0,0,136.89,180.75Z"/>
        <path class="a7ab64e7-c8e8-414a-b9a6-2a7054090e69" d="M138.11,182.48a.61.61,0,0,0-.57-.44.53.53,0,0,0-.52.4.46.46,0,0,0,0,.26.49.49,0,0,0,.07.19.08.08,0,0,0,0,0h0l0,0a.59.59,0,0,0,.58.19A.57.57,0,0,0,138.11,182.48Z"/>
        <path class="a7ab64e7-c8e8-414a-b9a6-2a7054090e69" d="M135.28,182.75a.42.42,0,0,0,.27-.25.49.49,0,0,0,0-.72.48.48,0,0,0-.34-.14.5.5,0,0,0-.42.24.67.67,0,0,0,0,.67A.43.43,0,0,0,135.28,182.75Z"/>
        <path class="a7ab64e7-c8e8-414a-b9a6-2a7054090e69" d="M148.61,189.55l.12-.06a.37.37,0,0,0,.07-.58.37.37,0,0,0-.58.07l-.06.12A.33.33,0,0,0,148.61,189.55Z"/>
        <path class="a7ab64e7-c8e8-414a-b9a6-2a7054090e69" d="M147.48,191.49a.3.3,0,0,0,0-.59A.3.3,0,0,0,147.48,191.49Z"/>
        <path class="a7ab64e7-c8e8-414a-b9a6-2a7054090e69" d="M145.17,190.59a.27.27,0,0,0,0-.53A.27.27,0,0,0,145.17,190.59Z"/>
        <path class="a7ab64e7-c8e8-414a-b9a6-2a7054090e69" d="M149.79,190.83a.41.41,0,0,0,0-.82A.41.41,0,0,0,149.79,190.83Z"/>
        <path class="a7ab64e7-c8e8-414a-b9a6-2a7054090e69" d="M152.2,191a.45.45,0,0,0,0-.9A.45.45,0,0,0,152.2,191Z"/>
      </g>
    </g>
    <path class="a16c924f-150d-4124-b8fd-23e10494a4e9" d="M106.55,148.47c-2.06-5.62-1-11.54.66-17.18,1.1-3.73,2.54-7.52,5.79-10.53a17.5,17.5,0,0,1,14-4.23,15,15,0,0,1,8.69,4.66,19.5,19.5,0,0,1,3.93,7.35A44.83,44.83,0,0,1,141.21,150a16.21,16.21,0,0,1-2.73,7.18c-3.55,4.74-11.2,5.9-18,3.66S108.42,153.6,106.55,148.47Z"/>
    <g class="baf9bfb0-2122-4674-8e1f-e34a5b261451">
      <path class="a12f2489-306d-4ca3-af1c-5b44291fcb28" d="M209.92,74.38a8.2,8.2,0,0,0-3.48-.76c-1.35,0-2.7.08-4.05.16-1.52.09-3,.18-4.56.24-3,.14-6,.23-9,.3a43,43,0,0,0-8.17.72,17.45,17.45,0,0,0-3.8,1.25,2.85,2.85,0,0,0-1.93,2.56c.07,1.09,1.08,1.64,2,1.83,1.2.23,2.43.22,3.63.36a9.28,9.28,0,0,1,1.88.41,3.27,3.27,0,0,1,1.58,1c.48.7-.69.9-1.15,1a14.08,14.08,0,0,1-1.94.24c-2.4.17-5.23,0-7.32,1.39a2.74,2.74,0,0,0-1.4,2.68c.24,1.1,1.41,1.62,2.4,1.86a16.67,16.67,0,0,0,4.17.28c.7,0,1.41,0,2.1,0,.45,0,1.12.17,1.28.66.22.66-.61,1.2-1.09,1.43a9.21,9.21,0,0,1-1.75.58,6.24,6.24,0,0,0-3.17,1.47,1.61,1.61,0,0,0-.47,1.42,1.53,1.53,0,0,0,1,1,4.82,4.82,0,0,1,.7.31c.38.25.35.5.1.85a4.09,4.09,0,0,0-.7,1.68,2.53,2.53,0,0,0,.11,1.61.75.75,0,0,0,1.05.38.35.35,0,0,0,0-.58c0-1.22,1.54-2,2.51-2.4a17.23,17.23,0,0,1,3.67-1c1.26-.22,2.53-.38,3.79-.63a13.47,13.47,0,0,0,3.51-1.08,2.8,2.8,0,0,0,1.75-2.31c0-1.1-1-1.69-1.9-2.13a3.21,3.21,0,0,1-1.4-1.06c-.38-.62,0-1.18.51-1.58a5.86,5.86,0,0,1,3.12-1c1.12-.11,2.24-.11,3.35-.27a5.07,5.07,0,0,0,3-1.24,1.55,1.55,0,0,0-.06-2.33,7.72,7.72,0,0,0-1-.69c-.29-.19-.65-.42-.75-.77-.17-.63.54-1.12,1-1.35a5.26,5.26,0,0,1,1.8-.47c1.33-.15,2.66-.21,4-.42a30.45,30.45,0,0,0,4.22-1c1-.32,2.24-.81,2.52-2S210.85,74.86,209.92,74.38Z"/>
    </g>
    <polygon class="a1841f23-63cb-47e7-b9ec-2d39acc872c0" points="184.09 137.46 172.18 137.46 174.97 99.51 181.3 99.51 184.09 137.46"/>
    <polygon class="ab183033-dc2c-4de4-9a1c-c3f2feb90736" points="172.18 137.46 174.97 99.51 178.14 99.51 178.14 137.46 172.18 137.46"/>
    <rect class="ea4adf16-9f00-4071-b5e7-517cf20f3225" x="174.52" y="102.7" width="7.39" height="0.82" transform="translate(356.44 206.22) rotate(180)"/>
    <rect class="ea4adf16-9f00-4071-b5e7-517cf20f3225" x="174.36" y="105.05" width="7.71" height="0.82" transform="translate(356.44 210.91) rotate(180)"/>
    <g class="e4aba348-b57e-4360-847d-4a38b00f3d3b">
      <path class="abf025a1-bf73-48d1-86a4-0dc290cf47f6" d="M244.07,68.24A13.31,13.31,0,0,0,238.41,67c-2.21-.07-4.41.14-6.61.27q-3.7.22-7.43.4-7.37.33-14.72.47a70.72,70.72,0,0,0-13.32,1.18,28.24,28.24,0,0,0-6.21,2c-1.63.78-3.27,2.18-3.14,4.17.11,1.78,1.76,2.68,3.33,3,1.95.38,4,.35,5.92.59a13.94,13.94,0,0,1,3.06.67,5.22,5.22,0,0,1,2.57,1.59c.78,1.15-1.12,1.47-1.87,1.62a23.93,23.93,0,0,1-3.16.39c-3.91.28-8.53-.06-11.93,2.26-1.4,1-2.68,2.57-2.29,4.36s2.3,2.65,3.92,3a27.58,27.58,0,0,0,6.79.47,30.16,30.16,0,0,1,3.43.06c.73.07,1.82.28,2.09,1.08.35,1.06-1,1.94-1.78,2.32a15.23,15.23,0,0,1-2.86,1c-1.77.48-3.89,1-5.16,2.39a2.7,2.7,0,0,0-.77,2.32,2.46,2.46,0,0,0,1.6,1.57,6.84,6.84,0,0,1,1.14.51c.62.41.56.82.17,1.39a6.71,6.71,0,0,0-1.15,2.74,4,4,0,0,0,.19,2.62,1.22,1.22,0,0,0,1.7.63.58.58,0,0,0,.07-1c0-2,2.51-3.24,4.09-3.92a27,27,0,0,1,6-1.65c2.05-.37,4.12-.63,6.17-1a21.93,21.93,0,0,0,5.72-1.76c1.39-.72,2.93-2,2.86-3.76s-1.68-2.75-3.11-3.47a5.26,5.26,0,0,1-2.27-1.73c-.62-1,0-1.93.82-2.58a9.54,9.54,0,0,1,5.1-1.7c1.81-.18,3.65-.19,5.46-.45s3.67-.71,4.89-2a2.54,2.54,0,0,0-.1-3.8A13.14,13.14,0,0,0,226,82.12c-.48-.31-1.06-.68-1.22-1.26-.28-1,.88-1.81,1.65-2.19a8.57,8.57,0,0,1,2.94-.76c2.17-.25,4.35-.35,6.51-.7a51,51,0,0,0,6.89-1.62c1.69-.52,3.64-1.32,4.09-3.25S245.59,69,244.07,68.24Z"/>
    </g>
    <polygon class="ec23047f-7797-4d24-a9e0-e89b13b1d53a" points="201.25 155.15 182.41 155.15 186.83 110.38 196.83 110.38 201.25 155.15"/>
    <polygon class="a14fe61c-c991-4215-8c5f-b74d86afb082" points="182.41 155.15 186.83 110.38 191.83 110.38 191.83 155.15 182.41 155.15"/>
    <rect class="a717a672-2260-4ea8-af6e-3c71a20a3dd9" x="186.12" y="113.57" width="11.68" height="0.82" transform="translate(383.92 227.96) rotate(180)"/>
    <rect class="a717a672-2260-4ea8-af6e-3c71a20a3dd9" x="185.87" y="115.92" width="12.18" height="0.82" transform="translate(383.92 232.65) rotate(180)"/>
    <ellipse class="b01e1299-e9fe-4ec0-b660-7fcf3b1bb558" cx="154.98" cy="163.64" rx="100.08" ry="3.96"/>
    <path class="b7aaa55d-7afd-4529-ba2a-ebe9c3f7d022" d="M242.93,159.1,237,160.23v.12C222.92,159,191.49,158,155,158c-34.95,0-65.25.88-80.13,2.16v-.11l-3.14-1.19L65,159V162c0,2.19,40.27,4,89.95,4s89.94-1.77,89.94-4V159Z"/>
    <ellipse class="b2e82d89-8544-487a-89a0-89b43a72a3f6" cx="154.98" cy="159.02" rx="89.94" ry="3.96"/>
    <g>
      <g>
        <g>
          <polygon class="ecae6a8e-94f7-4ecd-b0a6-31ab6ea3a0f9" points="119.04 88.61 118.01 88.61 117.29 138.53 119.73 138.53 119.04 88.61"/>
          <path class="be02fcf0-f10d-4d7e-8879-3bf3298b3794" d="M117.77,84.25l-1.46,2.42a.86.86,0,0,0,.74,1.31H120a.86.86,0,0,0,.74-1.31l-1.46-2.42A.87.87,0,0,0,117.77,84.25Z"/>
          <g>
            <path class="b30da91f-f520-4cc8-b5ba-a93243e95eb9" d="M110.73,90.05,116,87.66l-12.08,8.45a.19.19,0,0,1-.22-.3Z"/>
            <path class="ecae6a8e-94f7-4ecd-b0a6-31ab6ea3a0f9" d="M112,91.8,116,87.66l-12.08,8.45a.18.18,0,0,0,.2.31Z"/>
          </g>
          <g>
            <path class="ecae6a8e-94f7-4ecd-b0a6-31ab6ea3a0f9" d="M126.29,90.05,121,87.66l12.08,8.45a.19.19,0,0,0,.22-.3Z"/>
            <path class="b30da91f-f520-4cc8-b5ba-a93243e95eb9" d="M125.07,91.8,121,87.66l12.08,8.45a.18.18,0,0,1-.2.31Z"/>
          </g>
          <g>
            <path class="b30da91f-f520-4cc8-b5ba-a93243e95eb9" d="M119.58,77.68l-1.07,5.69V68.63a.19.19,0,0,1,.37,0Z"/>
            <path class="ecae6a8e-94f7-4ecd-b0a6-31ab6ea3a0f9" d="M117.44,77.68l1.07,5.69V68.63a.19.19,0,0,0-.37,0Z"/>
          </g>
        </g>
        <g>
          <path class="ab0e3fcc-3359-4b2f-a704-62833c786b5c" d="M117.51,86.64a2.66,2.66,0,0,0,1.53-.85,2.18,2.18,0,0,0,.49-1.08l-.28-.46a.87.87,0,0,0-1.48,0l-1.45,2.41A3.18,3.18,0,0,0,117.51,86.64Z"/>
          <path class="a6aac7d4-6601-4f62-9433-8ee1c1a46e4d" d="M117.51,86.64a3.18,3.18,0,0,1-1.19,0h0a.86.86,0,0,0,.74,1.31H120a.86.86,0,0,0,.74-1.31l-1.18-2a2.18,2.18,0,0,1-.49,1.08A2.66,2.66,0,0,1,117.51,86.64Z"/>
        </g>
      </g>
      <g>
        <g>
          <polygon class="ecae6a8e-94f7-4ecd-b0a6-31ab6ea3a0f9" points="104.22 80.25 102.99 80.25 102.13 139.97 105.05 139.97 104.22 80.25"/>
          <path class="be02fcf0-f10d-4d7e-8879-3bf3298b3794" d="M102.71,75,101,77.93a1,1,0,0,0,.88,1.57h3.5a1,1,0,0,0,.88-1.57L104.47,75A1,1,0,0,0,102.71,75Z"/>
          <g>
            <path class="b30da91f-f520-4cc8-b5ba-a93243e95eb9" d="M94.28,82l6.32-2.86L85.38,89.77a.19.19,0,0,1-.23-.3Z"/>
            <path class="ecae6a8e-94f7-4ecd-b0a6-31ab6ea3a0f9" d="M95.75,84.07l4.85-4.95L85.38,89.77a.18.18,0,0,0,.2.31Z"/>
          </g>
          <g>
            <path class="ecae6a8e-94f7-4ecd-b0a6-31ab6ea3a0f9" d="M112.9,82l-6.32-2.86L121.8,89.77a.19.19,0,0,0,.23-.3Z"/>
            <path class="b30da91f-f520-4cc8-b5ba-a93243e95eb9" d="M111.43,84.07l-4.85-4.95L121.8,89.77a.18.18,0,0,1-.2.31Z"/>
          </g>
          <g>
            <path class="b30da91f-f520-4cc8-b5ba-a93243e95eb9" d="M104.87,67.18,103.59,74V55.41a.19.19,0,0,1,.37,0Z"/>
            <path class="ecae6a8e-94f7-4ecd-b0a6-31ab6ea3a0f9" d="M102.31,67.18,103.59,74V55.41a.19.19,0,0,0-.37,0Z"/>
          </g>
        </g>
        <g>
          <path class="ab0e3fcc-3359-4b2f-a704-62833c786b5c" d="M102.4,77.9a3.26,3.26,0,0,0,1.83-1,2.66,2.66,0,0,0,.58-1.29l-.34-.55a1,1,0,0,0-1.76,0L101,77.92A3.82,3.82,0,0,0,102.4,77.9Z"/>
          <path class="a6aac7d4-6601-4f62-9433-8ee1c1a46e4d" d="M102.4,77.9a3.82,3.82,0,0,1-1.43,0h0a1,1,0,0,0,.88,1.57h3.5a1,1,0,0,0,.88-1.57l-1.41-2.34a2.66,2.66,0,0,1-.58,1.29A3.26,3.26,0,0,1,102.4,77.9Z"/>
        </g>
      </g>
      <g>
        <g>
          <polygon class="ecae6a8e-94f7-4ecd-b0a6-31ab6ea3a0f9" points="93.2 104.39 92.5 104.39 92.01 138.56 93.67 138.56 93.2 104.39"/>
          <path class="be02fcf0-f10d-4d7e-8879-3bf3298b3794" d="M92.34,101.41l-1,1.65a.59.59,0,0,0,.5.9h2a.6.6,0,0,0,.51-.9l-1-1.65A.59.59,0,0,0,92.34,101.41Z"/>
          <g>
            <path class="b30da91f-f520-4cc8-b5ba-a93243e95eb9" d="M87.52,105.38l3.61-1.64-7,4.91a.19.19,0,0,1-.22-.3Z"/>
            <path class="ecae6a8e-94f7-4ecd-b0a6-31ab6ea3a0f9" d="M88.35,106.57l2.78-2.83-7,4.91a.18.18,0,0,0,.2.31Z"/>
          </g>
          <g>
            <path class="ecae6a8e-94f7-4ecd-b0a6-31ab6ea3a0f9" d="M98.17,105.38l-3.62-1.64,7,4.91a.19.19,0,0,0,.22-.3Z"/>
            <path class="b30da91f-f520-4cc8-b5ba-a93243e95eb9" d="M97.33,106.57l-2.78-2.83,7,4.91a.18.18,0,0,1-.2.31Z"/>
          </g>
          <g>
            <path class="b30da91f-f520-4cc8-b5ba-a93243e95eb9" d="M93.57,96.91l-.73,3.9V92.24a.19.19,0,0,1,.37,0Z"/>
            <path class="ecae6a8e-94f7-4ecd-b0a6-31ab6ea3a0f9" d="M92.11,96.91l.73,3.9V92.24a.19.19,0,0,0-.37,0Z"/>
          </g>
        </g>
        <g>
          <path class="ab0e3fcc-3359-4b2f-a704-62833c786b5c" d="M92.16,103a1.81,1.81,0,0,0,1-.58,1.48,1.48,0,0,0,.34-.74l-.19-.31a.59.59,0,0,0-1,0l-1,1.64A2.06,2.06,0,0,0,92.16,103Z"/>
          <path class="a6aac7d4-6601-4f62-9433-8ee1c1a46e4d" d="M92.16,103a2.06,2.06,0,0,1-.82,0h0a.59.59,0,0,0,.5.9h2a.6.6,0,0,0,.51-.9l-.81-1.34a1.48,1.48,0,0,1-.34.74A1.81,1.81,0,0,1,92.16,103Z"/>
        </g>
      </g>
    </g>
    <path class="ae47d5e7-65b1-47f1-9769-2fa9e4734a5d" d="M78.46,152.08a4.22,4.22,0,0,0-1.8,4.54c.68,1.91,3,2.65,5,2.92,8.51,1.16,17.3-1.6,25.69.27,1.45.32,2.87.78,4.33,1a59.17,59.17,0,0,0,6.87.87c5.66,0,6.45-1.27,12.11-1.25.88,0,4.3.83,5.63.31a1.55,1.55,0,0,0,.85-2.21c-.44-.8-1.54-.89-2.45-.87-15.27.21-30.46-.78-45.73-.57-2.08,0-4.11.33-5.56-.65s2.7-3.29,1.82-4.68S79.5,151.33,78.46,152.08Z"/>
    <g>
      <path class="a96aad40-8b7f-44c3-aa31-72f63881d0e8" d="M74.68,148.9c-.13-.42.21-.83.53-1.12s.7-.64.67-1.07a1,1,0,0,0-.76-.83,11.62,11.62,0,0,0-1.18-.2,1.23,1.23,0,0,1-1-.64,1.15,1.15,0,0,1,.39-1.22,5.83,5.83,0,0,1,1.16-.69,1.83,1.83,0,0,0,.91-1,1.43,1.43,0,0,0-.89-1.59,3.56,3.56,0,0,0-2-.12c-.51.08-1.16.13-1.43-.31a1,1,0,0,1,0-.91c.14-.29.34-.55.47-.84a1.86,1.86,0,1,0-3.26.18c.28.43.76.81.74,1.32s-.57.87-1,1.1-1,.56-1.07,1.09.46.94.93,1.21,1,.55,1.14,1.08a1.64,1.64,0,0,1-.76,1.48c-.46.38-1,.71-1.38,1.12a2.73,2.73,0,0,0-.9,1.5,1.49,1.49,0,0,0,.62,1.55,3.66,3.66,0,0,0,1.09.29,1.29,1.29,0,0,1,.94.55,2.65,2.65,0,0,1,.16.8,1.77,1.77,0,0,0,.92,1.24c.55.29,1,.11,1.52.07a3.82,3.82,0,0,0,1.57-.2,4.51,4.51,0,0,0,.8-.51l1.47-1.09c.36-.26.76-.64.66-1.08S74.85,149.42,74.68,148.9Z"/>
      <polygon class="b4518e35-16ff-4bfa-9ff5-452c4285393e" points="73.76 149.74 73.62 149.64 71.55 151.01 71.51 147.13 71.21 147.13 71.18 149.24 69.14 147.87 68.99 147.98 71.18 149.58 71.09 158.93 71.63 158.93 71.56 151.36 73.76 149.74"/>
    </g>
    <g>
      <path class="bb383acf-064e-40fb-a5c9-04b66e5a7cd9" d="M73.25,151.84a3,3,0,0,0,.21-1.05,1.26,1.26,0,0,0-.91-.89c-.43-.13-.89-.14-1.32-.25a2.77,2.77,0,0,1-1-4.91,13.44,13.44,0,0,1,1.73-.89,2,2,0,0,0,1.16-1.46,2,2,0,0,0-1-1.66,11.83,11.83,0,0,1-1.64-1.16,2.72,2.72,0,0,1,.43-4,12.57,12.57,0,0,1,2-.83,1.91,1.91,0,0,0,1.29-1.61c0-.77-.75-1.31-1.22-1.92a3.38,3.38,0,1,1,5.86-1c-.21.63-.61,1.19-.87,1.8A2.15,2.15,0,0,0,78,134c.82,1.37,3.26.58,4.26,1.82a2.3,2.3,0,0,1-.11,2.57c-.49.78-1.22,1.37-1.74,2.12a2.46,2.46,0,0,0-.36,2.58,4.56,4.56,0,0,0,1.54,1.23,1.74,1.74,0,0,1,1,1.62c-.23,1.16-2.19,1.22-2.5,2.37-.18.68.35,1.33.51,2C81.55,154.48,72.43,155.56,73.25,151.84Z"/>
      <polygon class="a1b2d462-b6fd-4677-bfae-bb5003beca0a" points="79.19 148.85 79.02 148.73 76.51 150.4 76.46 145.68 76.09 145.68 76.06 148.25 73.57 146.59 73.39 146.71 76.06 148.66 75.95 160.02 76.6 160.02 76.51 150.82 79.19 148.85"/>
    </g>
    <path class="ab0e3fcc-3359-4b2f-a704-62833c786b5c" d="M125.57,151.66a85.21,85.21,0,0,0-3.52-16.07c-1.76-5-4.38-9.47-7.78-11.85a13.81,13.81,0,0,0-8.89-2.23A16.69,16.69,0,0,0,95.64,125a19.82,19.82,0,0,0-3.19,3.27,3.52,3.52,0,0,1,.28,1c.25,2,.1,4.09.46,6.13A27.74,27.74,0,0,0,95,141.64a27,27,0,0,0,3.73,6.21,27.5,27.5,0,0,0,18.74,10,3.13,3.13,0,0,1,1.54.4,1.21,1.21,0,0,1,.41.51l1.54.06c1.67.06,3.66-.16,4.47-2.34A10.24,10.24,0,0,0,125.57,151.66Z"/>
    <g>
      <path class="b281cbe4-09c4-472c-adb7-60a11fc0e64b" d="M177.82,122.5c3.93-1.23,8.43.25,11.54,3.79a22.34,22.34,0,0,1,4.62,9.87,50.48,50.48,0,0,1,1,11.32,11.22,11.22,0,0,1-.77,4.82c-1,2.06-3.11,2.77-5,3.19-5,1.1-9.51.86-15.24.64a6.69,6.69,0,0,1-5.41-2.66,11.08,11.08,0,0,1-1.48-5.66c-.43-7.86,1.15-16.67,5.82-22A11.14,11.14,0,0,1,177.82,122.5Z"/>
      <path class="ac27d835-b1f0-4351-981f-0f2b48954d8f" d="M185.17,152.89a16,16,0,0,1-8.33-2.7c-3.69-2.71-5.31-7.57-5.24-12.15a26.53,26.53,0,0,1,.55-4.78c.27-1.36.63-2.7,1-4,.21-.69.43-1.39.66-2.07.15-.45.69-1.39.58-1.85a.74.74,0,0,0-.46-.57,14.27,14.27,0,0,0-1.1,1.1c-4.67,5.3-6.25,14.11-5.82,22a11.08,11.08,0,0,0,1.48,5.66,6.69,6.69,0,0,0,5.41,2.66c5.73.22,10.25.46,15.24-.64a7.35,7.35,0,0,0,4.59-2.47C190.9,152.92,188,153.11,185.17,152.89Z"/>
    </g>
    <g>
      <path class="ad6ae863-940c-45a2-a0ac-e975c71dab5b" d="M216.73,141.51a35,35,0,0,0-4.69-8.28,12.39,12.39,0,0,0-6.49-4.58c-3.66-.85-7.45,1.15-10.36,4.62s-5,8.3-6.53,13.4a20.16,20.16,0,0,0-.9,4.22,8.89,8.89,0,0,0,.56,4.27,5,5,0,0,0,4.18,3.08,168.48,168.48,0,0,0,24.49.29,5.51,5.51,0,0,0,3.34-1.53c1.16-1.05.32-2.94-.06-4.55A68.29,68.29,0,0,0,216.73,141.51Z"/>
      <path class="e3bab07b-4400-493d-aac1-dcc694bdb0bd" d="M213.37,136.71a18,18,0,0,1,.51,7.52,13.23,13.23,0,0,1-1.33,4.07c-1.9,3.65-5.51,6.19-9.39,7.58a43.35,43.35,0,0,1-12,2,4.84,4.84,0,0,0,1.39.32,168.48,168.48,0,0,0,24.49.29,5.51,5.51,0,0,0,3.34-1.53c1.16-1.05.32-2.94-.06-4.55a68.29,68.29,0,0,0-3.54-10.94,35.31,35.31,0,0,0-4.62-8.19,16.81,16.81,0,0,0,.67,1.55C213,135.47,213.2,136.09,213.37,136.71Z"/>
    </g>
    <g>
      <path class="f8a716fa-c699-4892-bf02-5de2f68b72e8" d="M226.72,144.62c-.17-.54.27-1.08.69-1.46s.91-.83.88-1.4a1.35,1.35,0,0,0-1-1.08,13.18,13.18,0,0,0-1.55-.25,1.66,1.66,0,0,1-1.24-.85A1.48,1.48,0,0,1,225,138a7.75,7.75,0,0,1,1.52-.91,2.31,2.31,0,0,0,1.18-1.26,1.86,1.86,0,0,0-1.16-2.08,4.54,4.54,0,0,0-2.56-.16c-.68.11-1.52.18-1.88-.4a1.31,1.31,0,0,1,0-1.2c.18-.37.44-.71.61-1.09a2.43,2.43,0,0,0-3.79-2.86,2.48,2.48,0,0,0-.47,3.1c.36.56,1,1.05,1,1.72s-.74,1.14-1.37,1.44-1.34.73-1.4,1.42.61,1.24,1.23,1.58,1.32.73,1.48,1.42a2.15,2.15,0,0,1-1,1.93c-.6.5-1.25.93-1.81,1.46a3.77,3.77,0,0,0-1.18,2,2,2,0,0,0,.82,2,4.59,4.59,0,0,0,1.42.38,1.67,1.67,0,0,1,1.23.72,3.32,3.32,0,0,1,.21,1,2.3,2.3,0,0,0,1.21,1.63c.71.37,1.25.14,2,.09a4.94,4.94,0,0,0,2.05-.26,6.35,6.35,0,0,0,1-.67l1.93-1.42c.47-.35,1-.84.86-1.41S226.94,145.31,226.72,144.62Z"/>
      <polygon class="a73c20f3-c18b-4f7e-b1d0-1f288d14301a" points="225.52 145.72 225.33 145.59 222.63 147.39 222.58 142.31 222.18 142.31 222.15 145.07 219.47 143.29 219.28 143.42 222.14 145.52 222.03 157.73 222.73 157.73 222.63 147.84 225.52 145.72"/>
    </g>
    <g>
      <path class="ff02f906-6855-452f-bced-945a83ec6ab6" d="M224,150.52a2.74,2.74,0,0,0,.19-1,1.1,1.1,0,0,0-.84-.81c-.39-.13-.81-.13-1.21-.24a2.54,2.54,0,0,1-.87-4.51,13.2,13.2,0,0,1,1.59-.81,1.54,1.54,0,0,0,.16-2.87,11.72,11.72,0,0,1-1.51-1.07,2.49,2.49,0,0,1,.39-3.64,11.11,11.11,0,0,1,1.85-.77,1.76,1.76,0,0,0,1.18-1.48c0-.71-.69-1.2-1.13-1.76a3.11,3.11,0,1,1,5.39-.93c-.19.58-.55,1.09-.8,1.66a2,2,0,0,0,0,1.77c.76,1.26,3,.53,3.92,1.67a2.09,2.09,0,0,1-.11,2.36c-.44.71-1.11,1.26-1.59,1.95a2.28,2.28,0,0,0-.34,2.37,4.28,4.28,0,0,0,1.42,1.13,1.6,1.6,0,0,1,.88,1.49c-.21,1.07-2,1.12-2.29,2.17-.17.63.32,1.23.47,1.86C231.62,152.94,223.24,153.94,224,150.52Z"/>
      <polygon class="b7dc8e3f-308a-4768-ba27-cb857a52c92d" points="229.45 147.77 229.29 147.66 226.98 149.19 226.94 144.85 226.6 144.85 226.57 147.21 224.28 145.69 224.12 145.8 226.57 147.6 226.47 158.03 227.07 158.03 226.99 149.58 229.45 147.77"/>
    </g>
    <g>
      <rect class="b2e6c8b5-59a7-44c2-9b84-c133061ba30a" x="211.16" y="142.19" width="17.08" height="12.16"/>
      <polygon class="a69d1a86-671b-4333-b3e3-c67cdc68ac0c" points="211.16 154.36 228.24 154.36 228.24 142.19 211.16 154.36"/>
      <path class="e21b4ecd-b2e8-4e34-8850-4c861926b090" d="M227.74,142.19H211.16v3.95h0v.34h0v3.59h0v.34h0v4h17.08V142.19Zm-3,.51v3.44h-3.12V142.7Zm3,7.37h-2.66v-3.59h2.66Zm-3,0h-3.12v-3.59h3.12Zm-6.59-3.59h3.12v3.59h-3.12Zm-.35,3.59h-3.13v-3.59h3.13Zm3.47-7.37v3.44h-3.12V142.7Zm-3.47,0v3.44h-3.13V142.7Zm-6.13,0h2.65v3.44h-2.65Zm0,3.78h2.65v3.59h-2.65Zm0,7.37v-3.44h2.65v3.44Zm3,0v-3.44h3.13v3.44Zm3.48,0v-3.44h3.12v3.44Zm3.47,0v-3.44h3.12v3.44Zm3.47,0v-3.44h2.66v3.44Zm2.66-7.71h-2.66V142.7h2.66Z"/>
      <path class="fdbdd905-6453-4791-ac10-dd1c54840837" d="M220.66,158.36h-1.92a1.17,1.17,0,0,0-1.17,1.17h4.26A1.18,1.18,0,0,0,220.66,158.36Z"/>
      <rect class="fdbdd905-6453-4791-ac10-dd1c54840837" x="219.4" y="154.1" width="0.59" height="4.5"/>
    </g>
    <g>
      <rect class="b30da91f-f520-4cc8-b5ba-a93243e95eb9" x="197.13" y="143.65" width="16.05" height="11.43"/>
      <polygon class="ecae6a8e-94f7-4ecd-b0a6-31ab6ea3a0f9" points="197.13 155.08 213.19 155.08 213.19 143.65 197.13 155.08"/>
      <path class="f35f8399-394f-4442-9926-9c46d08e46a5" d="M212.71,143.65H197.13v3.7h0v.33h0v3.37h0v.32h0v3.71h16.06V143.65Zm-2.82.47v3.23H207v-3.23Zm2.82,6.93h-2.49v-3.37h2.49Zm-2.82,0H207v-3.37h2.93Zm-6.2-3.37h2.94v3.37h-2.94Zm-.33,3.37h-2.93v-3.37h2.93Zm3.27-6.93v3.23h-2.94v-3.23Zm-3.27,0v3.23h-2.93v-3.23Zm-5.75,0h2.49v3.23h-2.49Zm0,3.56h2.49v3.37h-2.49Zm0,6.93v-3.24h2.49v3.24Zm2.82,0v-3.24h2.93v3.24Zm3.26,0v-3.24h2.94v3.24Zm3.27,0v-3.24h2.93v3.24Zm3.26,0v-3.24h2.49v3.24Zm2.49-7.26h-2.49v-3.23h2.49Z"/>
      <path class="be02fcf0-f10d-4d7e-8879-3bf3298b3794" d="M206.06,158.84h-1.8a1.1,1.1,0,0,0-1.1,1.1h4A1.1,1.1,0,0,0,206.06,158.84Z"/>
      <rect class="be02fcf0-f10d-4d7e-8879-3bf3298b3794" x="204.88" y="154.84" width="0.55" height="4.23"/>
    </g>
    <g>
      <path class="a1175117-5da8-4884-aab7-5db82dc0f55d" d="M133.29,118.83c4.14-3.94,9.8-6.63,15.45-5.89,4.51.58,8.55,3.29,11.52,6.75a41.42,41.42,0,0,1,6.62,11.92,103.14,103.14,0,0,1,4.65,15.28c.47,2.11,1.24,6-.12,7.7-1.17,1.43-3.17,1.77-5,2-9.07,1.05-18.68-.29-27.77-1-4.49-.38-9.27-1.11-12.62-4.15C115.88,142.19,125.71,126,133.29,118.83Z"/>
      <path class="a142ec26-00bb-4927-bf15-7faaa9c38387" d="M165.62,155.05a67.62,67.62,0,0,1-28.78-6.3c-2.5-1.16-5-2.56-6.51-4.88a10.92,10.92,0,0,1-1.48-6.59,32.93,32.93,0,0,1,1.34-6.72l3.27-11.89a1.29,1.29,0,0,0-.17.16c-7.58,7.2-17.41,23.36-7.27,32.54,3.35,3,8.13,3.77,12.62,4.15,9.09.76,18.7,2.1,27.77,1a11.51,11.51,0,0,0,3.35-.77,4.15,4.15,0,0,0-1-.47A10.31,10.31,0,0,0,165.62,155.05Z"/>
    </g>
    <g>
      <path class="b19eb47f-22a8-480b-83a3-e3b06c6343fd" d="M158,139.61a2.21,2.21,0,0,1,.85-2A2.74,2.74,0,0,0,160,135.7a1.75,1.75,0,0,0-1.24-1.48,15.63,15.63,0,0,0-1.91-.35,2,2,0,0,1-1.55-1.16,2.16,2.16,0,0,1,.63-2.17,9.64,9.64,0,0,1,1.87-1.24,3.13,3.13,0,0,0,1.48-1.72,2.65,2.65,0,0,0-1.44-2.86,5.23,5.23,0,0,0-3.18-.21c-.84.15-1.89.24-2.33-.55a1.87,1.87,0,0,1,0-1.63c.21-.52.54-1,.75-1.49a3.66,3.66,0,0,0-.8-3.91,2.88,2.88,0,0,0-3.89,0,3.64,3.64,0,0,0-.59,4.23c.45.77,1.23,1.44,1.19,2.35s-.92,1.56-1.69,2-1.67,1-1.74,2,.75,1.68,1.52,2.15,1.64,1,1.83,1.94a3,3,0,0,1-1.23,2.64c-.73.68-1.54,1.27-2.24,2a5.16,5.16,0,0,0-1.45,2.68,2.8,2.8,0,0,0,1,2.77,5.12,5.12,0,0,0,1.76.52,2.06,2.06,0,0,1,1.52,1,5.11,5.11,0,0,1,.27,1.42,3.17,3.17,0,0,0,1.49,2.23c.88.5,1.56.19,2.46.12a5.54,5.54,0,0,0,2.54-.36,8.13,8.13,0,0,0,1.29-.91l2.39-2c.58-.47,1.24-1.15,1.07-1.93C159.58,140.79,158.3,140.54,158,139.61Z"/>
      <polygon class="f646282e-c8e8-499f-9289-9d1f9f19c7aa" points="156.53 141.11 156.3 140.93 152.96 143.38 152.89 136.45 152.4 136.45 152.36 140.22 149.04 137.78 148.81 137.96 152.35 140.84 152.21 157.53 153.08 157.53 152.96 144 156.53 141.11"/>
    </g>
    <g>
      <path class="abf2a8f7-4853-43b1-8831-9b551d975567" d="M127.05,128.21c4.57-2.39,9.82-.71,13.81,3.44s6.79,10.51,8.53,17.33a14.05,14.05,0,0,1,.55,3.32,5.12,5.12,0,0,1-.81,3.08,3,3,0,0,1-1.82,1,71.87,71.87,0,0,1-23.08,1.33,9,9,0,0,1-7.26-4,12.45,12.45,0,0,1-1.74-7.17c.2-4.22,2.66-7.54,4.46-10.48C121.74,132.7,124.16,129.72,127.05,128.21Z"/>
      <path class="a46ed325-90f7-41ee-9027-5ee9586c0d45" d="M147.06,155.58a5.41,5.41,0,0,0-1.84,0,29.08,29.08,0,0,1-12.14-1.08,14.47,14.47,0,0,1-10.61-13.81,35.83,35.83,0,0,1,.32-5.76,10.52,10.52,0,0,0,0-3.22,31.39,31.39,0,0,0-3.15,4.38c-1.8,2.94-4.26,6.26-4.46,10.48a12.45,12.45,0,0,0,1.74,7.17,9,9,0,0,0,7.26,4,71.87,71.87,0,0,0,23.08-1.33,4.87,4.87,0,0,0,.74-.23A2,2,0,0,0,147.06,155.58Z"/>
    </g>
    <g>
      <path class="ad6ae863-940c-45a2-a0ac-e975c71dab5b" d="M86.94,138.62c2.08-5.57,5-10.64,8.7-13.62a16.69,16.69,0,0,1,9.74-3.49,13.81,13.81,0,0,1,8.89,2.23c3.4,2.38,6,6.85,7.78,11.85a85.21,85.21,0,0,1,3.52,16.07,10.24,10.24,0,0,1-.11,4.84c-.81,2.18-2.8,2.4-4.47,2.34q-10.62-.39-21.26-.91c-3.51-.18-7-.36-10.52-.56a36.44,36.44,0,0,1-5.32-.31c-1.31-.26-1.45-1.39-1.15-3.23A91,91,0,0,1,86.94,138.62Z"/>
      <path class="bc903f8c-455c-45a4-ba48-e5717e0f1b8b" d="M119,158.27a3.13,3.13,0,0,0-1.54-.4,27.5,27.5,0,0,1-18.74-10A27,27,0,0,1,95,141.64a27.74,27.74,0,0,1-1.84-6.19c-.36-2-.21-4.09-.46-6.13a3.52,3.52,0,0,0-.28-1,38.84,38.84,0,0,0-5.51,10.35,91,91,0,0,0-4.2,15.21c-.3,1.84-.16,3,1.15,3.23a36.44,36.44,0,0,0,5.32.31c3.51.2,7,.38,10.52.56q9.85.48,19.72.85A1.21,1.21,0,0,0,119,158.27Z"/>
      <g>
        <path class="e96f1581-4152-4e0c-9d69-0258fb207d05" d="M85.47,154.89a.2.2,0,0,0,0,.4A.2.2,0,0,0,85.47,154.89Z"/>
        <path class="e96f1581-4152-4e0c-9d69-0258fb207d05" d="M86,152.83a.38.38,0,0,0,0,.76A.38.38,0,0,0,86,152.83Z"/>
        <path class="e96f1581-4152-4e0c-9d69-0258fb207d05" d="M86.84,154a.34.34,0,0,0,0,.68A.34.34,0,0,0,86.84,154Z"/>
        <path class="e96f1581-4152-4e0c-9d69-0258fb207d05" d="M88.78,154.71a.44.44,0,0,0,0,.88A.44.44,0,0,0,88.78,154.71Z"/>
        <path class="e96f1581-4152-4e0c-9d69-0258fb207d05" d="M86.09,155.37a.28.28,0,0,0,0,.56A.28.28,0,0,0,86.09,155.37Z"/>
        <path class="e96f1581-4152-4e0c-9d69-0258fb207d05" d="M86.91,153a.31.31,0,0,0,0-.62A.31.31,0,0,0,86.91,153Z"/>
        <path class="e96f1581-4152-4e0c-9d69-0258fb207d05" d="M86.41,150.31a.27.27,0,0,0,0,.54A.27.27,0,0,0,86.41,150.31Z"/>
        <path class="e96f1581-4152-4e0c-9d69-0258fb207d05" d="M86.15,149.37a.3.3,0,0,0,0-.59A.3.3,0,0,0,86.15,149.37Z"/>
        <path class="e96f1581-4152-4e0c-9d69-0258fb207d05" d="M87.47,147.91a.34.34,0,0,0,0-.67A.34.34,0,0,0,87.47,147.91Z"/>
        <path class="e96f1581-4152-4e0c-9d69-0258fb207d05" d="M88.47,149.2a.32.32,0,0,0,0,.63A.32.32,0,0,0,88.47,149.2Z"/>
        <path class="e96f1581-4152-4e0c-9d69-0258fb207d05" d="M87.91,151.69a.4.4,0,0,0,0,.79A.4.4,0,0,0,87.91,151.69Z"/>
        <path class="e96f1581-4152-4e0c-9d69-0258fb207d05" d="M91,153a.36.36,0,0,0,0,.72A.36.36,0,0,0,91,153Z"/>
        <path class="e96f1581-4152-4e0c-9d69-0258fb207d05" d="M90.35,155.07a.34.34,0,0,0,0,.67A.34.34,0,0,0,90.35,155.07Z"/>
        <path class="e96f1581-4152-4e0c-9d69-0258fb207d05" d="M89.22,152.12a.41.41,0,0,0,0,.81A.41.41,0,0,0,89.22,152.12Z"/>
        <path class="e96f1581-4152-4e0c-9d69-0258fb207d05" d="M90.6,150.85a.3.3,0,0,0,0,.59A.3.3,0,0,0,90.6,150.85Z"/>
        <path class="e96f1581-4152-4e0c-9d69-0258fb207d05" d="M93.29,153.2a.33.33,0,0,0,0,.65A.33.33,0,0,0,93.29,153.2Z"/>
        <path class="e96f1581-4152-4e0c-9d69-0258fb207d05" d="M93.29,155.16a.31.31,0,0,0,0,.61A.31.31,0,0,0,93.29,155.16Z"/>
        <path class="e96f1581-4152-4e0c-9d69-0258fb207d05" d="M91.73,155.13a.27.27,0,0,0,0,.54A.27.27,0,0,0,91.73,155.13Z"/>
        <path class="e96f1581-4152-4e0c-9d69-0258fb207d05" d="M96.55,154.43a.41.41,0,0,0,0,.82A.41.41,0,0,0,96.55,154.43Z"/>
        <path class="e96f1581-4152-4e0c-9d69-0258fb207d05" d="M99.43,155.49a.35.35,0,0,0,0,.7A.35.35,0,0,0,99.43,155.49Z"/>
        <path class="e96f1581-4152-4e0c-9d69-0258fb207d05" d="M102.06,156.23a.24.24,0,0,0,0,.48A.24.24,0,0,0,102.06,156.23Z"/>
        <path class="e96f1581-4152-4e0c-9d69-0258fb207d05" d="M94.79,155.54a.36.36,0,0,0,0,.72A.36.36,0,0,0,94.79,155.54Z"/>
        <path class="e96f1581-4152-4e0c-9d69-0258fb207d05" d="M94.79,153.33a.32.32,0,0,0,0,.64A.32.32,0,0,0,94.79,153.33Z"/>
        <path class="e96f1581-4152-4e0c-9d69-0258fb207d05" d="M99.74,154.3a.22.22,0,0,0,0-.43A.22.22,0,0,0,99.74,154.3Z"/>
        <path class="e96f1581-4152-4e0c-9d69-0258fb207d05" d="M97.61,156a.27.27,0,0,0,0,.53A.27.27,0,0,0,97.61,156Z"/>
        <path class="e96f1581-4152-4e0c-9d69-0258fb207d05" d="M92.85,151.27a.31.31,0,0,0,0,.62A.31.31,0,0,0,92.85,151.27Z"/>
        <path class="e96f1581-4152-4e0c-9d69-0258fb207d05" d="M90.22,147.43a.33.33,0,0,0,0,.66A.33.33,0,0,0,90.22,147.43Z"/>
        <path class="e96f1581-4152-4e0c-9d69-0258fb207d05" d="M88.35,146.32a.38.38,0,0,0,0-.75A.38.38,0,0,0,88.35,146.32Z"/>
        <path class="e96f1581-4152-4e0c-9d69-0258fb207d05" d="M89.54,142.77a.36.36,0,0,0,0,.72A.36.36,0,0,0,89.54,142.77Z"/>
        <path class="e96f1581-4152-4e0c-9d69-0258fb207d05" d="M88.22,142.92a.29.29,0,0,0,0-.58A.29.29,0,0,0,88.22,142.92Z"/>
        <path class="e96f1581-4152-4e0c-9d69-0258fb207d05" d="M87.53,145.26a.32.32,0,0,0,0-.63A.32.32,0,0,0,87.53,145.26Z"/>
        <path class="e96f1581-4152-4e0c-9d69-0258fb207d05" d="M90,140.34a.22.22,0,0,0,0-.43A.22.22,0,0,0,90,140.34Z"/>
        <path class="e96f1581-4152-4e0c-9d69-0258fb207d05" d="M90.91,139.09a.28.28,0,0,0,0-.55A.28.28,0,0,0,90.91,139.09Z"/>
        <path class="e96f1581-4152-4e0c-9d69-0258fb207d05" d="M91.23,145.36a.29.29,0,0,0,0-.58A.29.29,0,0,0,91.23,145.36Z"/>
        <path class="e96f1581-4152-4e0c-9d69-0258fb207d05" d="M92.23,147.75a.36.36,0,0,0,0-.72A.36.36,0,0,0,92.23,147.75Z"/>
        <path class="e96f1581-4152-4e0c-9d69-0258fb207d05" d="M95.3,148.63a.32.32,0,0,0,0,.64A.32.32,0,0,0,95.3,148.63Z"/>
        <path class="e96f1581-4152-4e0c-9d69-0258fb207d05" d="M95.55,150.82a.26.26,0,0,0,0,.52A.26.26,0,0,0,95.55,150.82Z"/>
        <path class="e96f1581-4152-4e0c-9d69-0258fb207d05" d="M92.16,149.93a.35.35,0,0,0,0-.7A.35.35,0,0,0,92.16,149.93Z"/>
        <path class="e96f1581-4152-4e0c-9d69-0258fb207d05" d="M90.66,148.87a.27.27,0,0,0,0,.54A.27.27,0,0,0,90.66,148.87Z"/>
        <path class="e96f1581-4152-4e0c-9d69-0258fb207d05" d="M89.54,149.52a.31.31,0,0,0,0,.62A.31.31,0,0,0,89.54,149.52Z"/>
        <path class="e96f1581-4152-4e0c-9d69-0258fb207d05" d="M89.16,151.58a.31.31,0,0,0,0-.62A.31.31,0,0,0,89.16,151.58Z"/>
        <path class="e96f1581-4152-4e0c-9d69-0258fb207d05" d="M87.59,151.07a.37.37,0,0,0,0-.73A.37.37,0,0,0,87.59,151.07Z"/>
        <path class="e96f1581-4152-4e0c-9d69-0258fb207d05" d="M85.22,151.94a.27.27,0,0,0,0,.54A.27.27,0,0,0,85.22,151.94Z"/>
        <path class="e96f1581-4152-4e0c-9d69-0258fb207d05" d="M88.78,154.07a.36.36,0,0,0,0-.72A.36.36,0,0,0,88.78,154.07Z"/>
        <path class="e96f1581-4152-4e0c-9d69-0258fb207d05" d="M85.34,153.72a.31.31,0,0,0,0,.61A.31.31,0,0,0,85.34,153.72Z"/>
        <path class="e96f1581-4152-4e0c-9d69-0258fb207d05" d="M87.53,155.56a.38.38,0,0,0,0,.75A.38.38,0,0,0,87.53,155.56Z"/>
        <path class="e96f1581-4152-4e0c-9d69-0258fb207d05" d="M90.54,154.1a.37.37,0,0,0,0,.73A.37.37,0,0,0,90.54,154.1Z"/>
        <path class="e96f1581-4152-4e0c-9d69-0258fb207d05" d="M91.35,152.16a.33.33,0,0,0,0-.65A.33.33,0,0,0,91.35,152.16Z"/>
        <path class="e96f1581-4152-4e0c-9d69-0258fb207d05" d="M92.42,154.29a.3.3,0,0,0,0,.6A.3.3,0,0,0,92.42,154.29Z"/>
        <path class="e96f1581-4152-4e0c-9d69-0258fb207d05" d="M90.16,146.65a.27.27,0,0,0,0-.53A.27.27,0,0,0,90.16,146.65Z"/>
        <path class="e96f1581-4152-4e0c-9d69-0258fb207d05" d="M88.72,148a.34.34,0,0,0,0-.68A.34.34,0,0,0,88.72,148Z"/>
        <path class="e96f1581-4152-4e0c-9d69-0258fb207d05" d="M86.72,146.23a.16.16,0,0,0,0-.31A.16.16,0,0,0,86.72,146.23Z"/>
        <path class="e96f1581-4152-4e0c-9d69-0258fb207d05" d="M89.35,144.9a.33.33,0,0,0,0-.66A.33.33,0,0,0,89.35,144.9Z"/>
        <path class="e96f1581-4152-4e0c-9d69-0258fb207d05" d="M93.42,149.46a.31.31,0,0,0,0,.61A.31.31,0,0,0,93.42,149.46Z"/>
        <path class="e96f1581-4152-4e0c-9d69-0258fb207d05" d="M94.42,151.27a.38.38,0,0,0,0,.75A.38.38,0,0,0,94.42,151.27Z"/>
        <path class="e96f1581-4152-4e0c-9d69-0258fb207d05" d="M97.8,153.45a.37.37,0,0,0,0-.73A.37.37,0,0,0,97.8,153.45Z"/>
        <path class="e96f1581-4152-4e0c-9d69-0258fb207d05" d="M94.79,154.79a.33.33,0,0,0,0-.66A.33.33,0,0,0,94.79,154.79Z"/>
        <path class="e96f1581-4152-4e0c-9d69-0258fb207d05" d="M98.11,154a.42.42,0,0,0,0,.84A.42.42,0,0,0,98.11,154Z"/>
        <path class="e96f1581-4152-4e0c-9d69-0258fb207d05" d="M96.05,151.79a.3.3,0,0,0,0,.59A.3.3,0,0,0,96.05,151.79Z"/>
        <path class="e96f1581-4152-4e0c-9d69-0258fb207d05" d="M96.67,155.77a.39.39,0,0,0,0,.77A.39.39,0,0,0,96.67,155.77Z"/>
        <path class="e96f1581-4152-4e0c-9d69-0258fb207d05" d="M100.22,156.09a.38.38,0,0,0,0,.75A.38.38,0,0,0,100.22,156.09Z"/>
        <path class="e96f1581-4152-4e0c-9d69-0258fb207d05" d="M100.87,154.77a.38.38,0,0,0,0,.76A.38.38,0,0,0,100.87,154.77Z"/>
      </g>
    </g>
    <g>
      <path class="fe290198-3655-4989-bf17-28bf4f90f7f2" d="M134.09,144.35a1.86,1.86,0,0,0-.57-1.56,2.28,2.28,0,0,1-.72-1.5,1.34,1.34,0,0,1,.83-1.15,8.82,8.82,0,0,1,1.26-.27,1.44,1.44,0,0,0,1-.91,1.9,1.9,0,0,0-.42-1.69,6.36,6.36,0,0,0-1.24-1,2.28,2.28,0,0,1-1-1.34,2.16,2.16,0,0,1,1-2.23,3,3,0,0,1,2.11-.16c.55.11,1.24.19,1.54-.43a1.77,1.77,0,0,0,0-1.28c-.15-.4-.36-.76-.5-1.16a3.24,3.24,0,0,1,.53-3.06,1.71,1.71,0,0,1,2.58,0,3.24,3.24,0,0,1,.39,3.31c-.3.6-.81,1.12-.79,1.84a2,2,0,0,0,1.12,1.54,2,2,0,0,1,1.15,1.51,2.05,2.05,0,0,1-1,1.69,2.5,2.5,0,0,0-1.22,1.51,2.54,2.54,0,0,0,.82,2.06c.48.54,1,1,1.48,1.57a4.26,4.26,0,0,1,1,2.09,2.4,2.4,0,0,1-.68,2.16,2.94,2.94,0,0,1-1.16.41,1.38,1.38,0,0,0-1,.77,5,5,0,0,0-.18,1.11,2.5,2.5,0,0,1-1,1.74c-.59.39-1,.15-1.64.1a3.29,3.29,0,0,1-1.68-.28,5.23,5.23,0,0,1-.85-.72l-1.59-1.52a1.78,1.78,0,0,1-.71-1.5C133.06,145.27,133.91,145.08,134.09,144.35Z"/>
      <polygon class="a3669f54-bccf-49b4-bdff-95da26a68036" points="135.08 145.52 135.24 145.38 137.45 147.3 137.5 141.88 137.82 141.88 137.85 144.83 140.04 142.92 140.2 143.06 137.85 145.31 137.95 158.35 137.37 158.35 137.45 147.78 135.08 145.52"/>
    </g>
    <g>
      <path class="b0eea4bf-22cb-4327-a62d-5326957d2b22" d="M138.57,145.47a5.14,5.14,0,0,0,.29-1.63,1.81,1.81,0,0,0-1.29-1.38c-.6-.21-1.24-.22-1.85-.39a4.24,4.24,0,0,1-2.85-3.35,4.61,4.61,0,0,1,1.51-4.27,18.88,18.88,0,0,1,2.44-1.38,3.07,3.07,0,0,0,1.63-2.27,3.21,3.21,0,0,0-1.39-2.58,16.66,16.66,0,0,1-2.31-1.8,4.52,4.52,0,0,1,.6-6.16,17.7,17.7,0,0,1,2.83-1.3,2.94,2.94,0,0,0,1.81-2.49c0-1.2-1.05-2-1.73-3a5.86,5.86,0,0,1,.15-6.66,4.58,4.58,0,0,1,6-1.14,5.69,5.69,0,0,1,2.16,6.23c-.3,1-.85,1.85-1.22,2.8a3.65,3.65,0,0,0-.05,3c1.15,2.12,4.59.89,6,2.82a3.85,3.85,0,0,1-.16,4c-.69,1.2-1.71,2.13-2.45,3.3a4.12,4.12,0,0,0-.51,4,6.57,6.57,0,0,0,2.17,1.92,2.74,2.74,0,0,1,1.35,2.51c-.32,1.8-3.08,1.89-3.51,3.67-.26,1.06.49,2.08.72,3.15C150.25,149.56,137.41,151.25,138.57,145.47Z"/>
      <polygon class="aaf422ff-6317-4e1e-bb00-2faec36bf945" points="146.93 140.83 146.68 140.64 143.15 143.23 143.08 135.91 142.56 135.91 142.52 139.89 139.01 137.31 138.76 137.5 142.51 140.54 142.36 158.17 143.28 158.17 143.16 143.88 146.93 140.83"/>
    </g>
  </g>
</svg>
