<svg id="e56bd09d-cd96-4506-86a3-7a178ae7012a" data-name="图层 1" xmlns="http://www.w3.org/2000/svg" xmlns:xlink="http://www.w3.org/1999/xlink" viewBox="0 0 283.46 283.46">
  <defs>
    <style>
      .be73e397-0c7c-4a9b-af25-a9f9e55bf734 {
        mask: url(#bf86be78-2983-439e-9ee3-59696f3bedf7);
        filter: url(#b8aa066c-d138-4212-aa53-de9f1bfc32ef);
      }

      .acac9528-d0a3-4888-8be9-199ff1adbf38, .afaad202-da47-4046-aac6-52a10ea7f2f4, .e23f87ea-4c05-4c01-8082-3d53771db11b {
        mix-blend-mode: multiply;
      }

      .e23f87ea-4c05-4c01-8082-3d53771db11b {
        fill: url(#ad85e8d2-1c7d-4447-a2b8-5597e56dc677);
      }

      .ad0353e7-464b-46ab-b2d8-29711109e377 {
        mask: url(#e565e2ac-333f-4d45-a8ec-520a54831d3f);
        filter: url(#eeb89cff-71de-45ae-9048-0f64eb45a16a);
      }

      .acac9528-d0a3-4888-8be9-199ff1adbf38 {
        fill: url(#eb36d761-503d-472f-b51c-90f065f85fc1);
      }

      .f17c96c3-2083-4c22-8167-ea97b5e9525e {
        mask: url(#bfa57537-b767-4a96-9aeb-a6149d65017c);
        filter: url(#e6227472-1511-44ea-a33c-9d65838567b3);
      }

      .afaad202-da47-4046-aac6-52a10ea7f2f4 {
        fill: url(#bd6eaf10-0208-4fc6-a94b-70c1ccf74f50);
      }

      .e6f73e0d-9763-4372-832c-03aff2499a76 {
        mask: url(#e66a905e-bb5c-495e-8667-195aacc88dc1);
      }

      .ab77814c-bb19-4027-b378-41f56a07f43d {
        opacity: 0.8;
        fill: url(#fde58bae-5181-43da-a395-b126d36fd151);
      }

      .ad071a23-b3cc-4267-acdf-d0c0379fd605 {
        fill: #ffda90;
      }

      .a21d3940-bab0-4384-bcde-e0958eee9702 {
        fill: #ffd67c;
      }

      .a6abbcf1-73df-4b58-ad9c-332946f37f04 {
        fill: #ffce54;
      }

      .a6ce1bb9-01d6-412f-8ff2-77001a0de742 {
        fill: #ffcb44;
      }

      .f3a32ab8-6d71-46e1-aef2-3528d4a3e63e {
        fill: #ffb600;
      }

      .a07e7b21-3e88-4287-b23b-23cbfec18d6c {
        fill: #a3c75e;
      }

      .e2500b7b-f4c1-47b8-8c09-fbb8c232bf34 {
        fill: #d8e09e;
      }

      .f28618ce-b9ab-4efd-a9de-edb396ebd4ad {
        fill: #57bb88;
      }

      .a8fed2d4-fdd5-494f-9ab2-3f8fa6dbf60f {
        fill: #8dd2d0;
      }

      .f6516cc5-e6a7-4929-baa3-07d91d8c1289 {
        mask: url(#edeabf68-6dc6-4ec9-af51-f3acb9de991b);
      }

      .a4be33fc-500d-4d39-91c4-28646d966c00 {
        fill: url(#a4b8c7f7-b84f-4f8c-ade4-fd9b9741075d);
      }

      .ef0cac44-de7a-409d-88aa-5404d76a461a {
        fill: #f1e9d6;
      }

      .a688c199-a4db-418d-ab9f-dac9ec5e0100 {
        fill: #eee2d4;
      }

      .a66f5ed6-52f6-428d-9e80-580baaf5861a {
        fill: #53c5d4;
      }

      .eecfdfb5-84c4-4289-9335-de4bfb1995a2 {
        mask: url(#aa9ba1f6-7687-4d8c-8530-47487c6d1832);
      }

      .ff6b0447-6fbd-416b-9bf6-d95f0939cba1 {
        fill: url(#a31f789b-f922-4d3f-b7a7-43b94802c82d);
      }

      .bf3a5b97-4b5b-415f-93fb-20f979f75e73 {
        fill: #eee9d4;
      }

      .ef875b55-0b08-4dea-b093-03640a9a48c0 {
        fill: #e6dfcb;
      }

      .fa385258-5faa-47f4-afee-60bc7a05ae42 {
        fill: #00b2c0;
      }

      .abcacf7d-0bed-440a-ab66-eb7ba5c82093 {
        fill: #cdc781;
      }

      .a5d408e0-9608-4cc1-b0eb-c60913748556 {
        fill: #e88246;
      }

      .b8e98b89-47c5-4c4d-8209-a18d31954093 {
        fill: #f59b6e;
      }

      .a6bad1fc-9dc7-4a8e-8d82-b5dede8a42eb {
        fill: #ece0c6;
      }

      .a55a9381-dbf5-48fe-82a1-aee532c8ec07 {
        fill: #e0d5bd;
      }

      .e9ccfa6b-5836-430b-92d2-04a6e8d2a943 {
        fill: #ede7ca;
      }

      .e7f813bf-c79a-4a2c-bbea-b8d96b56131b {
        fill: none;
      }

      .a10fc021-aac8-42ef-98fd-98173f0101d7 {
        fill: #d9cfb7;
      }

      .fc58ba27-4ca8-4f01-b69d-d27472205749 {
        fill: #64cbe4;
      }

      .a7f3489f-29ab-4563-8090-30c753e67621 {
        fill: #66ae70;
      }

      .fe88a6eb-5a9d-4749-a60a-e35783ee61f1 {
        fill: #408443;
      }

      .f36ade1d-b5e7-42b5-8eb1-9208549e57a8 {
        fill: #6dbe7a;
      }

      .f345ac43-1f73-40f6-b262-d47b24cd86b1 {
        fill: #479651;
      }

      .fed23dd7-14ae-418b-8eea-71e7c15e1c3d {
        fill: #5cc3c0;
      }

      .bd347634-1f20-4e28-bd9d-65bf3082e4a7 {
        fill: #54c2bc;
      }

      .ef71a555-d118-43ae-9efa-0a5e333481aa {
        fill: #009b92;
      }

      .f3073ac0-5eba-4687-a51c-8cada48b28b3 {
        fill: #008e85;
      }

      .b4129b4d-6b48-4232-b3af-9f52787394e6 {
        fill: #54905c;
      }

      .e0df3602-7c12-4e21-bbe5-a8098b0c0612 {
        fill: #316b35;
      }

      .ee41649b-73bc-4c48-a270-2d8f50c727dd {
        fill: #63a469;
      }

      .ff108085-466c-4bf2-86f3-48d0ac335033 {
        fill: #367f40;
      }

      .b4706f8d-fd63-4ac5-aae7-f2280f62edcc {
        fill: #f4eccd;
      }

      .a7f7a372-9a4f-44eb-8565-fb488ce1492d {
        fill: #efe7ca;
      }

      .b81ad491-8416-4b2c-a323-0a4b09f393f4 {
        fill: url(#a671f565-95f1-4f2f-b3b9-77d0ccdff921);
      }

      .ed2fc5cc-b346-4ba7-bea8-65c70c0d0750 {
        fill: #e7dcc1;
      }

      .b719b313-b1f3-4707-a4c7-b9661b1afec4 {
        fill: url(#ac6db469-e73d-4f97-b7d2-5cb6a1670314);
      }

      .be94a86d-958f-4e00-bf62-d6ea03c6ead7 {
        fill: #16bab1;
      }

      .b0c9110e-60d6-4a78-82fd-7d7794d8a665 {
        fill: #13afa4;
      }

      .ab6c1ea5-30f9-4617-bfd7-642bcbd8d91a {
        fill: #68b273;
      }

      .aff437f7-f13f-449c-9299-9991c7729290 {
        fill: #418a47;
      }

      .a0882ae5-1fdd-47f1-8a0e-1be99e79a61d {
        fill: #00827c;
      }

      .a3c3df42-6678-40ed-a810-909316b4e59b {
        fill: #007e73;
      }

      .b502ec6c-2d94-49a9-bcfb-467e7b373ad9 {
        fill: #00928a;
      }

      .a4d2f77d-6cff-4dd0-9be1-f86dea623606 {
        fill: #007b72;
      }

      .a4070aa1-11b8-4be2-808e-e36541110daf {
        fill: #5d9e65;
      }

      .b4dbd001-a5ff-4205-b316-ce02d9e5b037 {
        fill: #31793d;
      }

      .bdc883ef-6b42-4c7a-9d17-0863f9622a8a {
        fill: #6cb977;
      }

      .bd7a45e7-3c4c-445c-ac85-0f1b7aff42ee {
        fill: #3d924d;
      }

      .b5e3d7eb-62c9-4e96-88f1-4e513a113a0b {
        font-size: 23.27px;
        fill: #00786e;
        stroke: #00786e;
        stroke-miterlimit: 10;
        stroke-width: 0.92px;
        font-family: PoiretOne-Regular, Poiret One;
        letter-spacing: 0.2em;
      }

      .b28f898a-bd02-49f3-80c3-189d7ad9a6ad {
        letter-spacing: 0.08em;
      }

      .fdf23637-d1d2-4046-beb1-4b97a81701d9 {
        letter-spacing: 0.2em;
      }

      .bee98839-464c-48e6-9a40-9e971ea34703 {
        filter: url(#e6394d2d-a7d5-4ede-b18d-478fbf98b3fd);
      }

      .f1a7d271-57b5-4ee7-ad03-6ea82bb00fb7 {
        filter: url(#bd8be01c-5ddd-4d0f-aba1-b396019de958);
      }

      .beaab7fc-2724-46e4-8fc5-3fba8e6f9f06 {
        filter: url(#a73af654-8e28-4a2d-93d8-40d30868138d);
      }
    </style>
    <filter id="a73af654-8e28-4a2d-93d8-40d30868138d" x="25.1" y="-8334" width="202.97" height="32766" filterUnits="userSpaceOnUse" color-interpolation-filters="sRGB">
      <feFlood flood-color="#fff" result="bg"/>
      <feBlend in="SourceGraphic" in2="bg"/>
    </filter>
    <mask id="bf86be78-2983-439e-9ee3-59696f3bedf7" x="25.1" y="-8334" width="202.97" height="32766" maskUnits="userSpaceOnUse">
      <g class="beaab7fc-2724-46e4-8fc5-3fba8e6f9f06"/>
    </mask>
    <linearGradient id="ad85e8d2-1c7d-4447-a2b8-5597e56dc677" x1="25.1" y1="169.1" x2="228.07" y2="169.1" gradientUnits="userSpaceOnUse">
      <stop offset="0" stop-color="#fff"/>
      <stop offset="1"/>
    </linearGradient>
    <filter id="bd8be01c-5ddd-4d0f-aba1-b396019de958" x="172.18" y="-8334" width="39.49" height="32766" filterUnits="userSpaceOnUse" color-interpolation-filters="sRGB">
      <feFlood flood-color="#fff" result="bg"/>
      <feBlend in="SourceGraphic" in2="bg"/>
    </filter>
    <mask id="e565e2ac-333f-4d45-a8ec-520a54831d3f" x="172.18" y="-8334" width="39.49" height="32766" maskUnits="userSpaceOnUse">
      <g class="f1a7d271-57b5-4ee7-ad03-6ea82bb00fb7"/>
    </mask>
    <linearGradient id="eb36d761-503d-472f-b51c-90f065f85fc1" x1="172.18" y1="116.63" x2="211.66" y2="116.63" xlink:href="#ad85e8d2-1c7d-4447-a2b8-5597e56dc677"/>
    <filter id="e6394d2d-a7d5-4ede-b18d-478fbf98b3fd" x="182.54" y="-8334" width="64.37" height="32766" filterUnits="userSpaceOnUse" color-interpolation-filters="sRGB">
      <feFlood flood-color="#fff" result="bg"/>
      <feBlend in="SourceGraphic" in2="bg"/>
    </filter>
    <mask id="bfa57537-b767-4a96-9aeb-a6149d65017c" x="182.54" y="-8334" width="64.37" height="32766" maskUnits="userSpaceOnUse">
      <g class="bee98839-464c-48e6-9a40-9e971ea34703"/>
    </mask>
    <linearGradient id="bd6eaf10-0208-4fc6-a94b-70c1ccf74f50" x1="182.54" y1="118.75" x2="246.91" y2="118.75" xlink:href="#ad85e8d2-1c7d-4447-a2b8-5597e56dc677"/>
    <filter id="b8aa066c-d138-4212-aa53-de9f1bfc32ef" x="25.1" y="67.51" width="202.97" height="203.18" filterUnits="userSpaceOnUse" color-interpolation-filters="sRGB">
      <feFlood flood-color="#fff" result="bg"/>
      <feBlend in="SourceGraphic" in2="bg"/>
    </filter>
    <mask id="e66a905e-bb5c-495e-8667-195aacc88dc1" x="25.1" y="67.51" width="202.97" height="203.18" maskUnits="userSpaceOnUse">
      <g class="be73e397-0c7c-4a9b-af25-a9f9e55bf734">
        <path class="e23f87ea-4c05-4c01-8082-3d53771db11b" d="M212.8,112C204,107,193.57,105.38,183.46,104c-5.17-.73-11.48-2.45-12.49-7.57-1.27-6.42,4.8-11.76,8.87-16.89,4.26-5.37,5-10.56-1.7-11.6-7.31-1.14-22.73.47-29.72,1.11-8,.73-16.23-.65-24.35.15A119.4,119.4,0,0,0,75.91,84.65c-3.42,2-6.84,4.25-9,7.59s-2.63,8-.2,11.13c3,3.8,9.05,4.16,11.69,8.19,2.24,3.43.87,8.3-2.07,11.16s-7,4.17-11,5.19c-6.08,1.55-12.34,2.68-18,5.4s-10.8,7.36-12.29,13.46,1.83,13.5,7.93,15c5.21,1.27,11.2-1.73,15.85.95,5.22,3,4.52,11.37.26,15.63s-10.54,5.58-16.39,7-12.12,3.48-15.46,8.49c-4.47,6.68-1.58,16.38,4.65,21.46s14.76,6.34,22.78,6c4.2-.18,8.49-.75,12.52.42s7.78,4.71,7.52,8.9c-.35,5.52-6.69,8.26-11.94,10S51.34,245.87,52,251.38s7.39,7.56,12.85,8.37l48.62,7.15c27.25,4,56.58,7.71,81.06-4.91,5.81-3,11.29-7,14.85-12.43s5-12.62,2.52-18.67c-5.38-13.27-25.36-15.43-31-28.6-3.78-8.85.77-19.33,7.66-26s15.81-10.89,23.68-16.45,15.12-13.41,15.81-23C228.75,126.59,221.65,117.13,212.8,112Z"/>
      </g>
    </mask>
    <linearGradient id="fde58bae-5181-43da-a395-b126d36fd151" x1="25.1" y1="169.1" x2="228.07" y2="169.1" gradientUnits="userSpaceOnUse">
      <stop offset="0" stop-color="#f4eaeb"/>
      <stop offset="1" stop-color="#fff"/>
    </linearGradient>
    <filter id="eeb89cff-71de-45ae-9048-0f64eb45a16a" x="172.18" y="102.75" width="39.49" height="27.76" filterUnits="userSpaceOnUse" color-interpolation-filters="sRGB">
      <feFlood flood-color="#fff" result="bg"/>
      <feBlend in="SourceGraphic" in2="bg"/>
    </filter>
    <mask id="edeabf68-6dc6-4ec9-af51-f3acb9de991b" x="172.18" y="102.75" width="39.49" height="27.76" maskUnits="userSpaceOnUse">
      <g class="ad0353e7-464b-46ab-b2d8-29711109e377">
        <path class="acac9528-d0a3-4888-8be9-199ff1adbf38" d="M209.92,103.52a8.36,8.36,0,0,0-3.48-.76c-1.35,0-2.7.08-4.05.16-1.52.1-3,.18-4.56.25-3,.13-6,.22-9,.29a43,43,0,0,0-8.17.72,17.45,17.45,0,0,0-3.8,1.25A2.85,2.85,0,0,0,174.9,108c.07,1.09,1.08,1.64,2,1.83,1.2.24,2.43.22,3.63.36a9.28,9.28,0,0,1,1.88.41,3.27,3.27,0,0,1,1.58,1c.48.71-.69.9-1.15,1a15.83,15.83,0,0,1-1.94.25c-2.4.16-5.23,0-7.32,1.38a2.74,2.74,0,0,0-1.4,2.68c.24,1.1,1.41,1.62,2.4,1.86a17.17,17.17,0,0,0,4.17.29,18.36,18.36,0,0,1,2.1,0c.45,0,1.12.17,1.28.65.22.66-.61,1.2-1.09,1.43a10,10,0,0,1-1.75.59,6.22,6.22,0,0,0-3.17,1.46,1.61,1.61,0,0,0-.47,1.42,1.53,1.53,0,0,0,1,1,4.82,4.82,0,0,1,.7.31c.38.25.35.5.1.85a4.09,4.09,0,0,0-.7,1.68,2.53,2.53,0,0,0,.11,1.61.75.75,0,0,0,1.05.38.35.35,0,0,0,0-.58c0-1.22,1.54-2,2.51-2.4a17.23,17.23,0,0,1,3.67-1c1.26-.22,2.53-.38,3.79-.63a13.47,13.47,0,0,0,3.51-1.08,2.8,2.8,0,0,0,1.75-2.31c0-1.1-1-1.69-1.9-2.13a3.21,3.21,0,0,1-1.4-1.06c-.38-.62,0-1.18.51-1.58a5.86,5.86,0,0,1,3.12-1.05c1.12-.11,2.24-.11,3.35-.27a5,5,0,0,0,3-1.24,1.55,1.55,0,0,0-.06-2.33,7.72,7.72,0,0,0-1-.69c-.29-.19-.65-.42-.75-.77-.17-.63.54-1.12,1-1.35a5.26,5.26,0,0,1,1.8-.47c1.33-.15,2.66-.21,4-.42a30.45,30.45,0,0,0,4.22-1c1-.32,2.24-.81,2.52-2S210.85,104,209.92,103.52Z"/>
      </g>
    </mask>
    <linearGradient id="a4b8c7f7-b84f-4f8c-ade4-fd9b9741075d" x1="172.18" y1="116.63" x2="211.66" y2="116.63" xlink:href="#fde58bae-5181-43da-a395-b126d36fd151"/>
    <filter id="e6227472-1511-44ea-a33c-9d65838567b3" x="182.54" y="96.12" width="64.37" height="45.26" filterUnits="userSpaceOnUse" color-interpolation-filters="sRGB">
      <feFlood flood-color="#fff" result="bg"/>
      <feBlend in="SourceGraphic" in2="bg"/>
    </filter>
    <mask id="aa9ba1f6-7687-4d8c-8530-47487c6d1832" x="182.54" y="96.12" width="64.37" height="45.26" maskUnits="userSpaceOnUse">
      <g class="f17c96c3-2083-4c22-8167-ea97b5e9525e">
        <path class="afaad202-da47-4046-aac6-52a10ea7f2f4" d="M244.07,97.38a13.31,13.31,0,0,0-5.66-1.25c-2.21-.06-4.41.14-6.61.27q-3.7.22-7.43.4c-4.91.22-9.81.37-14.72.48a69.9,69.9,0,0,0-13.32,1.17,28.24,28.24,0,0,0-6.21,2c-1.63.78-3.27,2.18-3.14,4.17.11,1.78,1.76,2.68,3.33,3,1.95.38,4,.35,5.92.59a13.94,13.94,0,0,1,3.06.67,5.22,5.22,0,0,1,2.57,1.59c.78,1.15-1.12,1.47-1.87,1.62a23.93,23.93,0,0,1-3.16.39c-3.91.28-8.53-.06-11.93,2.26-1.4,1-2.68,2.57-2.29,4.36s2.3,2.65,3.92,3a27.58,27.58,0,0,0,6.79.47,30.16,30.16,0,0,1,3.43.06c.73.07,1.82.28,2.09,1.08.35,1.06-1,1.94-1.78,2.32a16,16,0,0,1-2.86,1c-1.77.47-3.89.95-5.16,2.38a2.7,2.7,0,0,0-.77,2.32,2.46,2.46,0,0,0,1.6,1.57,7.77,7.77,0,0,1,1.14.51c.62.41.56.82.17,1.39A6.71,6.71,0,0,0,190,138a4,4,0,0,0,.19,2.62,1.21,1.21,0,0,0,1.7.63.58.58,0,0,0,.07-.95c0-2,2.51-3.24,4.09-3.92a28.14,28.14,0,0,1,6-1.65c2.05-.37,4.12-.63,6.17-1A21.56,21.56,0,0,0,214,131.9c1.39-.72,2.93-2,2.86-3.76s-1.68-2.75-3.11-3.47a5.26,5.26,0,0,1-2.27-1.73c-.62-1,0-1.93.82-2.58a9.54,9.54,0,0,1,5.1-1.7c1.81-.18,3.65-.19,5.46-.45s3.67-.71,4.89-2a2.55,2.55,0,0,0-.1-3.81,13.14,13.14,0,0,0-1.63-1.13c-.48-.31-1.06-.68-1.22-1.26-.28-1,.88-1.81,1.65-2.19a8.57,8.57,0,0,1,2.94-.76c2.17-.25,4.35-.35,6.51-.7a48.19,48.19,0,0,0,6.89-1.62c1.69-.52,3.64-1.32,4.09-3.24S245.59,98.16,244.07,97.38Z"/>
      </g>
    </mask>
    <linearGradient id="a31f789b-f922-4d3f-b7a7-43b94802c82d" x1="182.54" y1="118.75" x2="246.91" y2="118.75" xlink:href="#fde58bae-5181-43da-a395-b126d36fd151"/>
    <linearGradient id="a671f565-95f1-4f2f-b3b9-77d0ccdff921" x1="219.7" y1="183.5" x2="219.7" y2="171.34" gradientUnits="userSpaceOnUse">
      <stop offset="0" stop-color="#e7dcc1"/>
      <stop offset="0.99" stop-color="#f8eed3"/>
    </linearGradient>
    <linearGradient id="ac6db469-e73d-4f97-b7d2-5cb6a1670314" x1="205.16" y1="184.22" x2="205.16" y2="172.79" gradientUnits="userSpaceOnUse">
      <stop offset="0" stop-color="#e0d5bd"/>
      <stop offset="0.99" stop-color="#f1ebce"/>
    </linearGradient>
  </defs>
  <g>
    <g class="e6f73e0d-9763-4372-832c-03aff2499a76">
      <path class="ab77814c-bb19-4027-b378-41f56a07f43d" d="M212.8,112C204,107,193.57,105.38,183.46,104c-5.17-.73-11.48-2.45-12.49-7.57-1.27-6.42,4.8-11.76,8.87-16.89,4.26-5.37,5-10.56-1.7-11.6-7.31-1.14-22.73.47-29.72,1.11-8,.73-16.23-.65-24.35.15A119.4,119.4,0,0,0,75.91,84.65c-3.42,2-6.84,4.25-9,7.59s-2.63,8-.2,11.13c3,3.8,9.05,4.16,11.69,8.19,2.24,3.43.87,8.3-2.07,11.16s-7,4.17-11,5.19c-6.08,1.55-12.34,2.68-18,5.4s-10.8,7.36-12.29,13.46,1.83,13.5,7.93,15c5.21,1.27,11.2-1.73,15.85.95,5.22,3,4.52,11.37.26,15.63s-10.54,5.58-16.39,7-12.12,3.48-15.46,8.49c-4.47,6.68-1.58,16.38,4.65,21.46s14.76,6.34,22.78,6c4.2-.18,8.49-.75,12.52.42s7.78,4.71,7.52,8.9c-.35,5.52-6.69,8.26-11.94,10S51.34,245.87,52,251.38s7.39,7.56,12.85,8.37l48.62,7.15c27.25,4,56.58,7.71,81.06-4.91,5.81-3,11.29-7,14.85-12.43s5-12.62,2.52-18.67c-5.38-13.27-25.36-15.43-31-28.6-3.78-8.85.77-19.33,7.66-26s15.81-10.89,23.68-16.45,15.12-13.41,15.81-23C228.75,126.59,221.65,117.13,212.8,112Z"/>
    </g>
    <g>
      <g>
        <circle class="ad071a23-b3cc-4267-acdf-d0c0379fd605" cx="191.11" cy="130.86" r="67.26" transform="translate(-36.56 173.46) rotate(-45)"/>
        <circle class="a21d3940-bab0-4384-bcde-e0958eee9702" cx="191.11" cy="130.86" r="53.5" transform="translate(-11.96 19.47) rotate(-5.65)"/>
        <circle class="a6abbcf1-73df-4b58-ad9c-332946f37f04" cx="191.11" cy="130.86" r="46.5"/>
        <circle class="a6ce1bb9-01d6-412f-8ff2-77001a0de742" cx="191.11" cy="130.86" r="38.25"/>
      </g>
      <path class="f3a32ab8-6d71-46e1-aef2-3528d4a3e63e" d="M213.19,99.64a38.24,38.24,0,0,1-53.3,53.3,38.24,38.24,0,1,0,53.3-53.3Z"/>
    </g>
    <g>
      <path class="a07e7b21-3e88-4287-b23b-23cbfec18d6c" d="M70.5,193.67a84.48,84.48,0,0,0,169,0Z"/>
      <path class="e2500b7b-f4c1-47b8-8c09-fbb8c232bf34" d="M219.29,208.92c-4.12-.4-8.37-.63-12.32.59-2.17.67-4.49,2.25-4.43,4.51,0,1.32.9,2.5,1,3.81.13,1.94-1.53,3.62-3.37,4.25a16,16,0,0,1-5.78.38,55.07,55.07,0,0,0-19.56,2.85c-2.64.9-5.65,2.61-5.65,5.4a4.71,4.71,0,0,0,2.4,3.8,10.88,10.88,0,0,0,4.48,1.28,17.46,17.46,0,0,1,4.73.84,4.37,4.37,0,0,1,2.91,3.53c.1,2.24-2.21,3.89-4.42,4.25s-4.49-.09-6.71.24S168,246.56,168,248.8c0,2.55,3,4,5.54,4.17,3.69.21,7.29-1.08,11-1.44s7.95.54,9.76,3.76c.81,1.44,1.19,3.37,2.72,4,1.78.73,3.56-.87,5.27-1.76,2.66-1.39,5.74-1.06,8.79-.69a84.38,84.38,0,0,0,27.37-50,16.7,16.7,0,0,1-6.76,2.45C227.58,209.89,223.41,209.33,219.29,208.92Z"/>
      <g>
        <path class="f28618ce-b9ab-4efd-a9de-edb396ebd4ad" d="M196.38,231.24c.11.15,0-.06-.08-.09a1,1,0,0,0-.5-.28h0a.42.42,0,0,0-.18-.13,2.5,2.5,0,0,1-.39-.23c-.11-.07-.25-.12-.34-.19a.64.64,0,0,0-1,.12,1.24,1.24,0,0,0,.4,1.59,2.86,2.86,0,0,0,.69.37.8.8,0,0,1,.39.24.76.76,0,0,0,1.17-.15,1,1,0,0,0,0-1Z"/>
        <path class="f28618ce-b9ab-4efd-a9de-edb396ebd4ad" d="M200.32,233.32a.68.68,0,0,0-1-.3l-.11,0a.76.76,0,0,0-.16,1.17,1.13,1.13,0,0,0,.27.41,1.22,1.22,0,0,0,1.53.11.84.84,0,0,0,.38-.67.81.81,0,0,0-.23-.55A.69.69,0,0,0,200.32,233.32Z"/>
        <path class="f28618ce-b9ab-4efd-a9de-edb396ebd4ad" d="M203.26,237.63a1,1,0,0,1-.23-.45.43.43,0,0,0-.84.11,3.25,3.25,0,0,0,0,.54,1.55,1.55,0,0,0,0,.23s0,.25.05.11a.63.63,0,1,0,.95-.54Z"/>
        <path class="f28618ce-b9ab-4efd-a9de-edb396ebd4ad" d="M188.76,228.4a.42.42,0,0,0-.31.31.47.47,0,0,0,.33.58.55.55,0,0,0,.59-.18.5.5,0,0,0,0-.63A.44.44,0,0,0,188.76,228.4Z"/>
        <path class="f28618ce-b9ab-4efd-a9de-edb396ebd4ad" d="M227,214.15a1.37,1.37,0,0,0-1.92-.23,1,1,0,0,0-.29.29,2.71,2.71,0,0,1-2.21-1.28c-.84-1.54.55-3.3,1.75-4.59a7.08,7.08,0,0,0,1.87-3,2.82,2.82,0,0,0-1.14-3.13,13.89,13.89,0,0,0-2.43-.58c-.79-.25-1.53-1.17-1.08-1.87.18-.29.51-.44.74-.69a1.7,1.7,0,0,0-.68-2.48,3.94,3.94,0,0,0-2.89,0,9.47,9.47,0,0,1-2.9.58c-1.39-.07-2.58-.95-3.8-1.61a23.55,23.55,0,0,0-9-2.24c-5.3-.51-10.63-.63-15.95-.75-2.65-.05-17.5-.22-15,5.78.46,1.11,1.63,2.17,1.12,3.25-.3.64-1,.89-1.67,1.21s-1.25,1-1,1.62c.32.92,1.79.68,2.47,1.39s.18,1.93-.47,2.7-1.46,1.66-1.22,2.64a2.12,2.12,0,0,0,2,1.36,25.35,25.35,0,0,0,2.6-.23,5.55,5.55,0,0,1,5.5,5.6c0,1-.28,2.1.48,2.67a1.84,1.84,0,0,0,1.95-.1,12.82,12.82,0,0,1,1.77-1.07,2.48,2.48,0,0,1,2.85,3.79l.64.46a1.27,1.27,0,0,0,.29,1.27,4.52,4.52,0,0,0,1.25.75c.66.4.79,1,1,1.64a3.45,3.45,0,0,0,2.12,2.07c1.37.63,2.72,1.3,4.11,1.88a4.71,4.71,0,0,0,3.05.36l3.53,1.48c.8.34,1.95.57,2.36-.19l.48,1,5.43.12a7.86,7.86,0,0,0,4.38-.76c1.27-.8,1.95-2.72.95-3.84-.35-.4-.88-.66-1.13-1.14-.4-.78.14-1.7.65-2.41l.25-.35a3,3,0,0,0,2.1-.52.4.4,0,0,0,.56.26,1.32,1.32,0,0,0,.68-.86,2.1,2.1,0,0,0,1.82-.52,1.85,1.85,0,0,0,.59-1.54c-.06-.73-.47-1,.14-1.53a2.29,2.29,0,0,0,.82-1.18,4.35,4.35,0,0,1,.13-.88,1.9,1.9,0,0,1,.46-.58,5.87,5.87,0,0,0,1.79-1.72.86.86,0,0,0-.08-.95A1,1,0,0,0,227,214.15Z"/>
      </g>
      <path class="e2500b7b-f4c1-47b8-8c09-fbb8c232bf34" d="M144.25,272.26c-1.56-2.75-6.43-2.42-7.44-5.4-.76-2.24,1.34-4.36,3.3-5.67s4.27-2.94,4.16-5.3-3-3.95-5.48-4.15c-3-.23-6,.55-9,1.21s-6.06,1.16-9,.4-5.65-3.12-5.91-6.14c-.18-2.16.88-4.26.83-6.42-.09-3.5-3.11-6.35-6.43-7.45s-6.91-.86-10.4-.77-7.16,0-10.22-1.69-5.26-5.43-4.09-8.73c.64-1.79,2.12-3.14,3.23-4.69s1.85-3.69.84-5.32c-1.46-2.36-5.7-2.14-6.56-4.8a3.89,3.89,0,0,1,1.3-3.77c1.83-1.78,4.6-2.75,5-5.58a2.85,2.85,0,0,0-2-3.46c-1.76-.64-3.89-.4-5.73-.66l-1.29-.2H70.5a84.5,84.5,0,0,0,72.77,83.67C144.49,275.78,145.18,273.9,144.25,272.26Z"/>
      <g>
        <path class="f28618ce-b9ab-4efd-a9de-edb396ebd4ad" d="M168.56,242.66c-.72-.24-1.58-.79-1.38-1.53-.71.52-1.73.05-2.35-.57s-1.14-1.42-2-1.7-1.16,0-1.8.55a.84.84,0,0,1-1.13-.65,1.81,1.81,0,0,1,.43-1.41,6.69,6.69,0,0,0,.86-1.26,2.51,2.51,0,0,0-2.07-3.17L159,232a3,3,0,0,1-2.85-.45c-.35-.28-.64-.64-1-1a11.73,11.73,0,0,0-2-1.47l-1.9-1.17a27.71,27.71,0,0,0-5.14-2.7c.27.45-.37,1-.89.91a11.5,11.5,0,0,1-1.47-.58,3.29,3.29,0,0,0-2.35.53,1.35,1.35,0,0,0-.39-.47,1.8,1.8,0,0,0-1.86-.05,2.1,2.1,0,0,0-1.26,2.49c-.61.39-1.33.81-1.73.73s-.91-1-1.42-1.19a2.43,2.43,0,0,0-2,.1l-4.43-.76a2.7,2.7,0,0,1,0-2.64,4.82,4.82,0,0,0,.66-2.65,4,4,0,0,0-1.72-2.19l-2.21.22,0-1.05a.65.65,0,0,1-.9-.3,2,2,0,0,1-.1-1.06l.27-2.75a2.43,2.43,0,0,0-.11-1.34.88.88,0,0,0-1.13-.47c0-.25,0-.51,0-.77a1.67,1.67,0,0,0-1.91.27,4.91,4.91,0,0,0-1.13,1.71c-.32.69-.65,1.38-1,2.07l-2.13-.08a1.22,1.22,0,0,0-1.14-1.59c-1.16-1-1.36-1.85-2.35-3a4,4,0,0,1-1-1.88,4.26,4.26,0,0,1,.93-2.7,4.63,4.63,0,0,1,2-2c1-.4,2.14-.05,3.23,0s2.43-.42,2.53-1.5c.14.8,1.31.88,2,.48s1.28-1.09,2.09-1.21a2.37,2.37,0,0,1,1.89.79c.5.49.88,1.11,1.34,1.64a7.14,7.14,0,0,0,.56.54.3.3,0,0,0,.06.19c.42.64.2,1.43.4,2.15a1.73,1.73,0,0,0,1.23,1.26,1.38,1.38,0,0,0,1.47-.56,2.65,2.65,0,0,0,.19-.95,7.41,7.41,0,0,0,.91-.86l2.21-1c.63-1.34,1.69-2.18,2.32-3.51l.57-1.23.48-1,1-2.11a39.81,39.81,0,0,0,2-4.72l-7.36.85c-1.19.13-2.39.27-3.58.38a83,83,0,0,1-18.1-.3c-4.68-.59-9.5-1.57-14-.31a15.1,15.1,0,0,0-4.7,2.82,11.73,11.73,0,0,0,.77,5.74,3.27,3.27,0,0,0,1.29,1.46,1.81,1.81,0,0,0,1.89,0,1.59,1.59,0,0,0,.2,2,6.82,6.82,0,0,0,1.87,1.23,9.9,9.9,0,0,1,4.82,6.63,8,8,0,0,0,.64,2.47,1.8,1.8,0,0,0,2.12,1l.27.5a5,5,0,0,0,2.13,2.25,10.27,10.27,0,0,0,3.05.76l4.14.6a12.66,12.66,0,0,1,3,.69,12.24,12.24,0,0,1,3.06,2,4.57,4.57,0,0,1,1.49,1.72,8.22,8.22,0,0,0,.62,1.93,2.81,2.81,0,0,0,1.67.9,25.57,25.57,0,0,0,6.91.75c.29.63.57,1.27.86,1.9,1,2.28-.64,4.85-2.55,6.46a7.21,7.21,0,0,0-1.88,1.77,4.47,4.47,0,0,0-.41,2.41,6.75,6.75,0,0,1-.18,2.46,2,2,0,0,1-1.81,1.44l.63,2.71c-.35.39.15,1.11.57,1.44a6.73,6.73,0,0,1,1.29.93,3.3,3.3,0,0,1,.31,2.23c0,.76.15,1.69.87,2s1.73-.3,2.27.27c.28.3.26.78.47,1.13a1,1,0,0,0,1.1.45,1,1,0,0,0,.74-.93,2.71,2.71,0,0,0,2.12.61c.4-.06.62.14.82.49a2.79,2.79,0,0,1,.3,1.18c.08.82.17,1.63.25,2.45a2,2,0,0,1-.11,1.19c-.53,1-2.43.78-2.72,1.88-.21.84.75,1.48,1,2.29.39,1.14-.63,2.25-1.56,3s-2,1.83-1.65,3a1.52,1.52,0,0,0,1.3,1,3.82,3.82,0,0,0,1.76-.26l3.82-1.19c.91-.28,2-.74,2.13-1.69.78,0,1.37-.72,1.71-1.42a5.1,5.1,0,0,1,1.19-2c1.3-1,3.3,0,4.87-.6,1.11-.39,1.8-1.45,2.64-2.27s2.2-1.41,3.13-.7l1.85-1.67c-.54-.76.4-1.9,1.08-2.53s1.57-1.1,2-1.93a12.67,12.67,0,0,0,.49-2.13,6.75,6.75,0,0,1,2-2.8l4.82-4.61c-.46.14-.87-.45-.77-.92a2.42,2.42,0,0,1,.85-1.14,1.67,1.67,0,0,0,.67-1.22C170.19,243.24,169.29,242.89,168.56,242.66Z"/>
        <path class="f28618ce-b9ab-4efd-a9de-edb396ebd4ad" d="M137,216.28a1.13,1.13,0,0,0,1-1.05c0-.71-.84-1.11-1.55-1.2a3.47,3.47,0,0,1-2-.56,2,2,0,0,0-1.08-1c-1.17-.62-3.27-2.31-4.65-2.27-.65,0-1.57.67-1.51,1.42s1,1.2,1.45.48l-.27,1.93a5.56,5.56,0,0,1,6,.7c.4.34.76.75,1.18,1.07A2.14,2.14,0,0,0,137,216.28Z"/>
        <path class="f28618ce-b9ab-4efd-a9de-edb396ebd4ad" d="M138.94,217.2a4.14,4.14,0,0,0,2.53.69l3.13.2c.39,0,.89,0,1-.42s-.17-.5-.38-.66C143.73,215.87,140,215.15,138.94,217.2Z"/>
        <polygon class="f28618ce-b9ab-4efd-a9de-edb396ebd4ad" points="140.59 212.79 140.59 212.8 140.6 212.8 140.59 212.79"/>
        <path class="f28618ce-b9ab-4efd-a9de-edb396ebd4ad" d="M141.14,213.1a3.55,3.55,0,0,0-.54-.3l.54.3a1,1,0,0,1-.55-.3,1,1,0,0,0-.42-.1c-.37,0-.77.26-.75.62s.54.65,1,.74l1.34.3c.3.07.67.12.87-.12a.6.6,0,0,0-.21-.83,2,2,0,0,0-.93-.25Z"/>
        <path class="f28618ce-b9ab-4efd-a9de-edb396ebd4ad" d="M134,217.24a.78.78,0,0,0-.54.83,2.67,2.67,0,0,0,1,.85.92.92,0,0,0,1.15-.29.88.88,0,0,0-.26-1.08,2.07,2.07,0,0,0-1.13-.41l.11.08A.8.8,0,0,0,134,217.24Z"/>
        <path class="f28618ce-b9ab-4efd-a9de-edb396ebd4ad" d="M123.72,239.6a2.35,2.35,0,0,0-1.14-.32l.29,0a1,1,0,0,0-1.3.52,1,1,0,0,0,.55,1.29,2,2,0,0,0,1,0,1.25,1.25,0,0,0,.92-.44A.83.83,0,0,0,123.72,239.6Z"/>
        <path class="f28618ce-b9ab-4efd-a9de-edb396ebd4ad" d="M118.83,239.3a.58.58,0,0,0-.59.15.65.65,0,0,0,.16.9.8.8,0,0,0,.95-.1,1,1,0,0,0,.29-.94Z"/>
        <path class="f28618ce-b9ab-4efd-a9de-edb396ebd4ad" d="M120.47,237.08c-.42-.13-1-.16-1.18.25s.24.76.63.78a1.84,1.84,0,0,0,1.08-.4l-.32.34c.12.18.44.11.54-.09a.54.54,0,0,0-.16-.59A1.42,1.42,0,0,0,120.47,237.08Z"/>
        <path class="f28618ce-b9ab-4efd-a9de-edb396ebd4ad" d="M152.32,226.27h-.21l.11,0a.32.32,0,0,0-.15.13.65.65,0,0,0,.2.82,2,2,0,0,0,.84.36,1.67,1.67,0,0,1,.8.42,1.79,1.79,0,0,0-1.24-1.69A.42.42,0,0,0,152.32,226.27Z"/>
        <path class="f28618ce-b9ab-4efd-a9de-edb396ebd4ad" d="M151.39,224.27l0,0,1.25-.32a1.33,1.33,0,0,0-1.06-.86c-.48,0-.93.56-.66,1A.51.51,0,0,0,151.39,224.27Z"/>
        <path class="f28618ce-b9ab-4efd-a9de-edb396ebd4ad" d="M136.89,209.89a.44.44,0,0,0,0-.87.43.43,0,0,0-.43.43A.44.44,0,0,0,136.89,209.89Z"/>
        <path class="f28618ce-b9ab-4efd-a9de-edb396ebd4ad" d="M138.11,211.62a.61.61,0,0,0-.57-.44.55.55,0,0,0-.52.4.46.46,0,0,0,0,.26.49.49,0,0,0,.07.19v0h0l0,0a.59.59,0,0,0,.58.19A.57.57,0,0,0,138.11,211.62Z"/>
        <path class="f28618ce-b9ab-4efd-a9de-edb396ebd4ad" d="M135.28,211.89a.42.42,0,0,0,.27-.25.49.49,0,0,0,0-.72.48.48,0,0,0-.34-.14.5.5,0,0,0-.42.24.67.67,0,0,0,0,.67A.43.43,0,0,0,135.28,211.89Z"/>
        <path class="f28618ce-b9ab-4efd-a9de-edb396ebd4ad" d="M148.61,218.69l.12-.06a.37.37,0,1,0-.51-.5l-.06.11A.33.33,0,0,0,148.61,218.69Z"/>
        <path class="f28618ce-b9ab-4efd-a9de-edb396ebd4ad" d="M147.48,220.63a.3.3,0,0,0,0-.59A.3.3,0,0,0,147.48,220.63Z"/>
        <path class="f28618ce-b9ab-4efd-a9de-edb396ebd4ad" d="M145.17,219.73a.27.27,0,0,0,0-.53A.27.27,0,0,0,145.17,219.73Z"/>
        <path class="f28618ce-b9ab-4efd-a9de-edb396ebd4ad" d="M149.79,220a.42.42,0,0,0,0-.83A.42.42,0,0,0,149.79,220Z"/>
        <path class="f28618ce-b9ab-4efd-a9de-edb396ebd4ad" d="M152.2,220.11a.45.45,0,0,0,0-.9A.45.45,0,0,0,152.2,220.11Z"/>
      </g>
    </g>
    <path class="a8fed2d4-fdd5-494f-9ab2-3f8fa6dbf60f" d="M106.55,177.61c-2.06-5.62-1-11.54.66-17.18,1.1-3.73,2.54-7.52,5.79-10.52a17.47,17.47,0,0,1,14-4.24,15,15,0,0,1,8.69,4.66,19.46,19.46,0,0,1,3.93,7.36,44.78,44.78,0,0,1,1.59,21.43,16.21,16.21,0,0,1-2.73,7.18c-3.55,4.74-11.2,5.9-18,3.66S108.42,182.74,106.55,177.61Z"/>
    <g class="f6516cc5-e6a7-4929-baa3-07d91d8c1289">
      <path class="a4be33fc-500d-4d39-91c4-28646d966c00" d="M209.92,103.52a8.36,8.36,0,0,0-3.48-.76c-1.35,0-2.7.08-4.05.16-1.52.1-3,.18-4.56.25-3,.13-6,.22-9,.29a43,43,0,0,0-8.17.72,17.45,17.45,0,0,0-3.8,1.25A2.85,2.85,0,0,0,174.9,108c.07,1.09,1.08,1.64,2,1.83,1.2.24,2.43.22,3.63.36a9.28,9.28,0,0,1,1.88.41,3.27,3.27,0,0,1,1.58,1c.48.71-.69.9-1.15,1a15.83,15.83,0,0,1-1.94.25c-2.4.16-5.23,0-7.32,1.38a2.74,2.74,0,0,0-1.4,2.68c.24,1.1,1.41,1.62,2.4,1.86a17.17,17.17,0,0,0,4.17.29,18.36,18.36,0,0,1,2.1,0c.45,0,1.12.17,1.28.65.22.66-.61,1.2-1.09,1.43a10,10,0,0,1-1.75.59,6.22,6.22,0,0,0-3.17,1.46,1.61,1.61,0,0,0-.47,1.42,1.53,1.53,0,0,0,1,1,4.82,4.82,0,0,1,.7.31c.38.25.35.5.1.85a4.09,4.09,0,0,0-.7,1.68,2.53,2.53,0,0,0,.11,1.61.75.75,0,0,0,1.05.38.35.35,0,0,0,0-.58c0-1.22,1.54-2,2.51-2.4a17.23,17.23,0,0,1,3.67-1c1.26-.22,2.53-.38,3.79-.63a13.47,13.47,0,0,0,3.51-1.08,2.8,2.8,0,0,0,1.75-2.31c0-1.1-1-1.69-1.9-2.13a3.21,3.21,0,0,1-1.4-1.06c-.38-.62,0-1.18.51-1.58a5.86,5.86,0,0,1,3.12-1.05c1.12-.11,2.24-.11,3.35-.27a5,5,0,0,0,3-1.24,1.55,1.55,0,0,0-.06-2.33,7.72,7.72,0,0,0-1-.69c-.29-.19-.65-.42-.75-.77-.17-.63.54-1.12,1-1.35a5.26,5.26,0,0,1,1.8-.47c1.33-.15,2.66-.21,4-.42a30.45,30.45,0,0,0,4.22-1c1-.32,2.24-.81,2.52-2S210.85,104,209.92,103.52Z"/>
    </g>
    <polygon class="ef0cac44-de7a-409d-88aa-5404d76a461a" points="184.09 166.6 172.18 166.6 174.97 128.65 181.3 128.65 184.09 166.6"/>
    <polygon class="a688c199-a4db-418d-ab9f-dac9ec5e0100" points="172.18 166.6 174.97 128.65 178.14 128.65 178.14 166.6 172.18 166.6"/>
    <rect class="a66f5ed6-52f6-428d-9e80-580baaf5861a" x="174.52" y="131.84" width="7.39" height="0.82" transform="translate(356.44 264.5) rotate(180)"/>
    <rect class="a66f5ed6-52f6-428d-9e80-580baaf5861a" x="174.36" y="134.19" width="7.71" height="0.82" transform="translate(356.44 269.19) rotate(180)"/>
    <g class="eecfdfb5-84c4-4289-9335-de4bfb1995a2">
      <path class="ff6b0447-6fbd-416b-9bf6-d95f0939cba1" d="M244.07,97.38a13.31,13.31,0,0,0-5.66-1.25c-2.21-.06-4.41.14-6.61.27q-3.7.22-7.43.4c-4.91.22-9.81.37-14.72.48a69.9,69.9,0,0,0-13.32,1.17,28.24,28.24,0,0,0-6.21,2c-1.63.78-3.27,2.18-3.14,4.17.11,1.78,1.76,2.68,3.33,3,1.95.38,4,.35,5.92.59a13.94,13.94,0,0,1,3.06.67,5.22,5.22,0,0,1,2.57,1.59c.78,1.15-1.12,1.47-1.87,1.62a23.93,23.93,0,0,1-3.16.39c-3.91.28-8.53-.06-11.93,2.26-1.4,1-2.68,2.57-2.29,4.36s2.3,2.65,3.92,3a27.58,27.58,0,0,0,6.79.47,30.16,30.16,0,0,1,3.43.06c.73.07,1.82.28,2.09,1.08.35,1.06-1,1.94-1.78,2.32a16,16,0,0,1-2.86,1c-1.77.47-3.89.95-5.16,2.38a2.7,2.7,0,0,0-.77,2.32,2.46,2.46,0,0,0,1.6,1.57,7.77,7.77,0,0,1,1.14.51c.62.41.56.82.17,1.39A6.71,6.71,0,0,0,190,138a4,4,0,0,0,.19,2.62,1.21,1.21,0,0,0,1.7.63.58.58,0,0,0,.07-.95c0-2,2.51-3.24,4.09-3.92a28.14,28.14,0,0,1,6-1.65c2.05-.37,4.12-.63,6.17-1A21.56,21.56,0,0,0,214,131.9c1.39-.72,2.93-2,2.86-3.76s-1.68-2.75-3.11-3.47a5.26,5.26,0,0,1-2.27-1.73c-.62-1,0-1.93.82-2.58a9.54,9.54,0,0,1,5.1-1.7c1.81-.18,3.65-.19,5.46-.45s3.67-.71,4.89-2a2.55,2.55,0,0,0-.1-3.81,13.14,13.14,0,0,0-1.63-1.13c-.48-.31-1.06-.68-1.22-1.26-.28-1,.88-1.81,1.65-2.19a8.57,8.57,0,0,1,2.94-.76c2.17-.25,4.35-.35,6.51-.7a48.19,48.19,0,0,0,6.89-1.62c1.69-.52,3.64-1.32,4.09-3.24S245.59,98.16,244.07,97.38Z"/>
    </g>
    <polygon class="bf3a5b97-4b5b-415f-93fb-20f979f75e73" points="201.25 184.29 182.41 184.29 186.83 139.52 196.83 139.52 201.25 184.29"/>
    <polygon class="ef875b55-0b08-4dea-b093-03640a9a48c0" points="182.41 184.29 186.83 139.52 191.83 139.52 191.83 184.29 182.41 184.29"/>
    <rect class="fa385258-5faa-47f4-afee-60bc7a05ae42" x="186.12" y="142.71" width="11.68" height="0.82" transform="translate(383.92 286.24) rotate(180)"/>
    <rect class="fa385258-5faa-47f4-afee-60bc7a05ae42" x="185.87" y="145.06" width="12.18" height="0.82" transform="translate(383.92 290.93) rotate(180)"/>
    <ellipse class="abcacf7d-0bed-440a-ab66-eb7ba5c82093" cx="154.98" cy="192.78" rx="100.08" ry="3.96"/>
    <path class="a5d408e0-9608-4cc1-b0eb-c60913748556" d="M242.93,188.24,237,189.37v.12c-14.09-1.38-45.52-2.34-82-2.34-34.95,0-65.25.88-80.13,2.16v-.11L71.7,188l-6.67.15v3c0,2.19,40.27,4,89.95,4s89.94-1.77,89.94-4v-3Z"/>
    <ellipse class="b8e98b89-47c5-4c4d-8209-a18d31954093" cx="154.98" cy="188.16" rx="89.94" ry="3.96"/>
    <g>
      <g>
        <g>
          <polygon class="a6bad1fc-9dc7-4a8e-8d82-b5dede8a42eb" points="119.04 117.75 118.01 117.75 117.29 167.68 119.73 167.68 119.04 117.75"/>
          <path class="a55a9381-dbf5-48fe-82a1-aee532c8ec07" d="M117.77,113.39l-1.46,2.42a.86.86,0,0,0,.74,1.31H120a.86.86,0,0,0,.74-1.31l-1.46-2.42A.87.87,0,0,0,117.77,113.39Z"/>
          <g>
            <path class="e9ccfa6b-5836-430b-92d2-04a6e8d2a943" d="M110.73,119.19,116,116.8l-12.08,8.45a.19.19,0,0,1-.22-.3Z"/>
            <path class="a6bad1fc-9dc7-4a8e-8d82-b5dede8a42eb" d="M112,120.94,116,116.8l-12.08,8.45a.18.18,0,0,0,.2.31Z"/>
          </g>
          <g>
            <path class="a6bad1fc-9dc7-4a8e-8d82-b5dede8a42eb" d="M126.29,119.19,121,116.8l12.08,8.45a.19.19,0,0,0,.22-.3Z"/>
            <path class="e9ccfa6b-5836-430b-92d2-04a6e8d2a943" d="M125.07,120.94,121,116.8l12.08,8.45a.18.18,0,0,1-.2.31Z"/>
          </g>
          <g>
            <path class="e9ccfa6b-5836-430b-92d2-04a6e8d2a943" d="M119.58,106.82l-1.07,5.69V97.78a.19.19,0,0,1,.37,0Z"/>
            <path class="a6bad1fc-9dc7-4a8e-8d82-b5dede8a42eb" d="M117.44,106.82l1.07,5.69V97.78a.19.19,0,0,0-.37,0Z"/>
          </g>
        </g>
        <g>
          <path class="e7f813bf-c79a-4a2c-bbea-b8d96b56131b" d="M117.51,115.78a2.66,2.66,0,0,0,1.53-.85,2.19,2.19,0,0,0,.49-1.07l-.28-.47a.87.87,0,0,0-1.48,0l-1.45,2.41A3.18,3.18,0,0,0,117.51,115.78Z"/>
          <path class="a10fc021-aac8-42ef-98fd-98173f0101d7" d="M117.51,115.78a3.18,3.18,0,0,1-1.19,0h0a.86.86,0,0,0,.74,1.31H120a.86.86,0,0,0,.74-1.31l-1.18-2a2.19,2.19,0,0,1-.49,1.07A2.66,2.66,0,0,1,117.51,115.78Z"/>
        </g>
      </g>
      <g>
        <g>
          <polygon class="a6bad1fc-9dc7-4a8e-8d82-b5dede8a42eb" points="104.22 109.4 102.99 109.4 102.13 169.11 105.05 169.11 104.22 109.4"/>
          <path class="a55a9381-dbf5-48fe-82a1-aee532c8ec07" d="M102.71,104.18,101,107.07a1,1,0,0,0,.88,1.57h3.5a1,1,0,0,0,.88-1.57l-1.75-2.89A1,1,0,0,0,102.71,104.18Z"/>
          <g>
            <path class="e9ccfa6b-5836-430b-92d2-04a6e8d2a943" d="M94.28,111.12l6.32-2.86L85.38,118.91a.19.19,0,0,1-.23-.3Z"/>
            <path class="a6bad1fc-9dc7-4a8e-8d82-b5dede8a42eb" d="M95.75,113.21l4.85-4.95L85.38,118.91a.18.18,0,0,0,.2.31Z"/>
          </g>
          <g>
            <path class="a6bad1fc-9dc7-4a8e-8d82-b5dede8a42eb" d="M112.9,111.12l-6.32-2.86,15.22,10.65a.19.19,0,0,0,.23-.3Z"/>
            <path class="e9ccfa6b-5836-430b-92d2-04a6e8d2a943" d="M111.43,113.21l-4.85-4.95,15.22,10.65a.18.18,0,0,1-.2.31Z"/>
          </g>
          <g>
            <path class="e9ccfa6b-5836-430b-92d2-04a6e8d2a943" d="M104.87,96.32l-1.28,6.81V84.56a.19.19,0,0,1,.37,0Z"/>
            <path class="a6bad1fc-9dc7-4a8e-8d82-b5dede8a42eb" d="M102.31,96.32l1.28,6.81V84.56a.19.19,0,0,0-.37,0Z"/>
          </g>
        </g>
        <g>
          <path class="e7f813bf-c79a-4a2c-bbea-b8d96b56131b" d="M102.4,107a3.26,3.26,0,0,0,1.83-1,2.67,2.67,0,0,0,.58-1.28l-.34-.56a1,1,0,0,0-1.76,0L101,107.06A3.82,3.82,0,0,0,102.4,107Z"/>
          <path class="a10fc021-aac8-42ef-98fd-98173f0101d7" d="M102.4,107a3.82,3.82,0,0,1-1.43,0h0a1,1,0,0,0,.88,1.57h3.5a1,1,0,0,0,.88-1.57l-1.41-2.33a2.67,2.67,0,0,1-.58,1.28A3.26,3.26,0,0,1,102.4,107Z"/>
        </g>
      </g>
      <g>
        <g>
          <polygon class="a6bad1fc-9dc7-4a8e-8d82-b5dede8a42eb" points="93.2 133.53 92.5 133.53 92.01 167.7 93.67 167.7 93.2 133.53"/>
          <path class="a55a9381-dbf5-48fe-82a1-aee532c8ec07" d="M92.34,130.55l-1,1.65a.59.59,0,0,0,.5.9h2a.6.6,0,0,0,.51-.9l-1-1.65A.59.59,0,0,0,92.34,130.55Z"/>
          <g>
            <path class="e9ccfa6b-5836-430b-92d2-04a6e8d2a943" d="M87.52,134.52l3.61-1.64-7,4.91a.19.19,0,0,1-.22-.3Z"/>
            <path class="a6bad1fc-9dc7-4a8e-8d82-b5dede8a42eb" d="M88.35,135.72l2.78-2.84-7,4.91a.18.18,0,0,0,.2.31Z"/>
          </g>
          <g>
            <path class="a6bad1fc-9dc7-4a8e-8d82-b5dede8a42eb" d="M98.17,134.52l-3.62-1.64,7,4.91a.19.19,0,0,0,.22-.3Z"/>
            <path class="e9ccfa6b-5836-430b-92d2-04a6e8d2a943" d="M97.33,135.72l-2.78-2.84,7,4.91a.18.18,0,0,1-.2.31Z"/>
          </g>
          <g>
            <path class="e9ccfa6b-5836-430b-92d2-04a6e8d2a943" d="M93.57,126.05l-.73,3.9v-8.57a.19.19,0,0,1,.37,0Z"/>
            <path class="a6bad1fc-9dc7-4a8e-8d82-b5dede8a42eb" d="M92.11,126.05l.73,3.9v-8.57a.19.19,0,0,0-.37,0Z"/>
          </g>
        </g>
        <g>
          <path class="e7f813bf-c79a-4a2c-bbea-b8d96b56131b" d="M92.16,132.18a1.81,1.81,0,0,0,1-.58,1.48,1.48,0,0,0,.34-.74l-.19-.31a.59.59,0,0,0-1,0l-1,1.64A2.06,2.06,0,0,0,92.16,132.18Z"/>
          <path class="a10fc021-aac8-42ef-98fd-98173f0101d7" d="M92.16,132.18a2.06,2.06,0,0,1-.82,0h0a.59.59,0,0,0,.5.9h2a.6.6,0,0,0,.51-.9l-.81-1.34a1.48,1.48,0,0,1-.34.74A1.81,1.81,0,0,1,92.16,132.18Z"/>
        </g>
      </g>
    </g>
    <path class="fc58ba27-4ca8-4f01-b69d-d27472205749" d="M78.46,181.22a4.22,4.22,0,0,0-1.8,4.54c.68,1.91,3,2.65,5,2.92,8.51,1.16,17.3-1.6,25.69.27,1.45.32,2.87.78,4.33,1a57.08,57.08,0,0,0,6.87.87c5.66,0,6.45-1.27,12.11-1.25.88,0,4.3.84,5.63.31a1.55,1.55,0,0,0,.85-2.21c-.44-.8-1.54-.88-2.45-.87-15.27.21-30.46-.78-45.73-.57-2.08,0-4.11.33-5.56-.65s2.7-3.29,1.82-4.68S79.5,180.47,78.46,181.22Z"/>
    <g>
      <path class="a7f3489f-29ab-4563-8090-30c753e67621" d="M74.68,178c-.13-.42.21-.83.53-1.12s.7-.64.67-1.07a1,1,0,0,0-.76-.83,11.6,11.6,0,0,0-1.18-.19,1.27,1.27,0,0,1-1-.65,1.15,1.15,0,0,1,.39-1.22,5.83,5.83,0,0,1,1.16-.69,1.83,1.83,0,0,0,.91-1,1.44,1.44,0,0,0-.89-1.59,3.56,3.56,0,0,0-2-.12c-.51.08-1.16.13-1.43-.31a1,1,0,0,1,0-.91c.14-.29.34-.55.47-.84a1.86,1.86,0,1,0-3.26.18c.28.43.76.81.74,1.32s-.57.87-1,1.1-1,.56-1.07,1.09.46.94.93,1.21,1,.55,1.14,1.08A1.64,1.64,0,0,1,68.3,175c-.46.38-1,.71-1.38,1.12a2.73,2.73,0,0,0-.9,1.5,1.49,1.49,0,0,0,.62,1.55,3.38,3.38,0,0,0,1.09.29,1.29,1.29,0,0,1,.94.55,2.65,2.65,0,0,1,.16.8,1.79,1.79,0,0,0,.92,1.25c.55.28,1,.1,1.52.06a3.66,3.66,0,0,0,1.57-.2,4.51,4.51,0,0,0,.8-.51l1.47-1.09c.36-.26.76-.64.66-1.08S74.85,178.56,74.68,178Z"/>
      <polygon class="fe88a6eb-5a9d-4749-a60a-e35783ee61f1" points="73.76 178.88 73.62 178.78 71.55 180.15 71.51 176.27 71.21 176.27 71.18 178.38 69.14 177.01 68.99 177.12 71.18 178.72 71.09 188.07 71.63 188.07 71.56 180.5 73.76 178.88"/>
    </g>
    <g>
      <path class="f36ade1d-b5e7-42b5-8eb1-9208549e57a8" d="M73.25,181a3,3,0,0,0,.21-1,1.26,1.26,0,0,0-.91-.89c-.43-.13-.89-.14-1.32-.25a2.77,2.77,0,0,1-1-4.91A13.44,13.44,0,0,1,72,173a2,2,0,0,0,1.16-1.46,2,2,0,0,0-1-1.66,11.83,11.83,0,0,1-1.64-1.16,2.72,2.72,0,0,1,.43-4,12.57,12.57,0,0,1,2-.83,1.91,1.91,0,0,0,1.29-1.61c0-.77-.75-1.31-1.22-1.92a3.38,3.38,0,1,1,5.86-1c-.21.63-.61,1.19-.87,1.8a2.17,2.17,0,0,0,0,1.94c.82,1.36,3.26.57,4.26,1.81a2.3,2.3,0,0,1-.11,2.57c-.49.78-1.22,1.37-1.74,2.13a2.44,2.44,0,0,0-.36,2.57,4.56,4.56,0,0,0,1.54,1.23,1.74,1.74,0,0,1,1,1.62c-.23,1.16-2.19,1.22-2.5,2.37-.18.68.35,1.33.51,2C81.55,183.62,72.43,184.7,73.25,181Z"/>
      <polygon class="f345ac43-1f73-40f6-b262-d47b24cd86b1" points="79.19 177.99 79.02 177.87 76.51 179.54 76.46 174.82 76.09 174.82 76.06 177.39 73.57 175.73 73.39 175.85 76.06 177.8 75.95 189.16 76.6 189.16 76.51 179.96 79.19 177.99"/>
    </g>
    <path class="e7f813bf-c79a-4a2c-bbea-b8d96b56131b" d="M125.57,180.8a85.21,85.21,0,0,0-3.52-16.07c-1.76-5-4.38-9.47-7.78-11.85a13.81,13.81,0,0,0-8.89-2.23,16.76,16.76,0,0,0-9.74,3.49,19.82,19.82,0,0,0-3.19,3.27,3.52,3.52,0,0,1,.28,1.05c.25,2,.1,4.09.46,6.14A27.81,27.81,0,0,0,95,170.78,27,27,0,0,0,98.76,177a27.5,27.5,0,0,0,18.74,10,3.13,3.13,0,0,1,1.54.4,1.21,1.21,0,0,1,.41.51L121,188c1.67.06,3.66-.16,4.47-2.34A10.23,10.23,0,0,0,125.57,180.8Z"/>
    <g>
      <path class="fed23dd7-14ae-418b-8eea-71e7c15e1c3d" d="M177.82,151.64c3.93-1.23,8.43.25,11.54,3.79A22.34,22.34,0,0,1,194,165.3a50.48,50.48,0,0,1,1,11.32,11.22,11.22,0,0,1-.77,4.82c-1,2.06-3.11,2.77-5,3.19-5,1.1-9.51.86-15.24.64a6.69,6.69,0,0,1-5.41-2.66A11.08,11.08,0,0,1,167,177c-.43-7.86,1.15-16.67,5.82-22A11.14,11.14,0,0,1,177.82,151.64Z"/>
      <path class="bd347634-1f20-4e28-bd9d-65bf3082e4a7" d="M185.17,182a16,16,0,0,1-8.33-2.7c-3.69-2.71-5.31-7.57-5.24-12.15a26.53,26.53,0,0,1,.55-4.78c.27-1.36.63-2.7,1-4q.31-1,.66-2.07c.15-.45.69-1.39.58-1.85a.74.74,0,0,0-.46-.57,14.27,14.27,0,0,0-1.1,1.1c-4.67,5.3-6.25,14.11-5.82,22a11.08,11.08,0,0,0,1.48,5.66,6.69,6.69,0,0,0,5.41,2.66c5.73.22,10.25.46,15.24-.64a7.35,7.35,0,0,0,4.59-2.47C190.9,182.06,188,182.25,185.17,182Z"/>
    </g>
    <g>
      <path class="ef71a555-d118-43ae-9efa-0a5e333481aa" d="M216.73,170.66a34.88,34.88,0,0,0-4.69-8.29,12.39,12.39,0,0,0-6.49-4.58c-3.66-.85-7.45,1.15-10.36,4.62s-5,8.3-6.53,13.4a20.16,20.16,0,0,0-.9,4.22,8.89,8.89,0,0,0,.56,4.27,5,5,0,0,0,4.18,3.08,168.48,168.48,0,0,0,24.49.29,5.56,5.56,0,0,0,3.34-1.52c1.16-1.06.32-3-.06-4.56A67.84,67.84,0,0,0,216.73,170.66Z"/>
      <path class="f3073ac0-5eba-4687-a51c-8cada48b28b3" d="M213.37,165.85a18,18,0,0,1,.51,7.52,13.23,13.23,0,0,1-1.33,4.07c-1.9,3.65-5.51,6.19-9.39,7.59a43.71,43.71,0,0,1-12,2,4.84,4.84,0,0,0,1.39.32,168.48,168.48,0,0,0,24.49.29,5.56,5.56,0,0,0,3.34-1.52c1.16-1.06.32-3-.06-4.56a67.84,67.84,0,0,0-3.54-10.93,35.18,35.18,0,0,0-4.62-8.2,16.81,16.81,0,0,0,.67,1.55C213,164.61,213.2,165.23,213.37,165.85Z"/>
    </g>
    <g>
      <path class="b4129b4d-6b48-4232-b3af-9f52787394e6" d="M226.72,173.76c-.17-.54.27-1.08.69-1.46s.91-.83.88-1.4a1.36,1.36,0,0,0-1-1.08,13.18,13.18,0,0,0-1.55-.25,1.66,1.66,0,0,1-1.24-.85,1.48,1.48,0,0,1,.5-1.59,8.27,8.27,0,0,1,1.52-.91A2.31,2.31,0,0,0,227.7,165a1.86,1.86,0,0,0-1.16-2.08,4.54,4.54,0,0,0-2.56-.16c-.68.11-1.52.18-1.88-.4a1.31,1.31,0,0,1,0-1.2c.18-.37.44-.71.61-1.08a2.44,2.44,0,0,0-3.79-2.87,2.48,2.48,0,0,0-.47,3.1c.36.56,1,1,1,1.72s-.74,1.14-1.37,1.44-1.34.73-1.4,1.42.61,1.24,1.23,1.58,1.32.73,1.48,1.42a2.15,2.15,0,0,1-1,1.93c-.6.5-1.25.93-1.81,1.46a3.77,3.77,0,0,0-1.18,2,2,2,0,0,0,.82,2,4.59,4.59,0,0,0,1.42.38,1.65,1.65,0,0,1,1.23.73,3.2,3.2,0,0,1,.21,1,2.3,2.3,0,0,0,1.21,1.63c.71.37,1.25.14,2,.09a4.94,4.94,0,0,0,2.05-.26,6.35,6.35,0,0,0,1-.67l1.93-1.42c.47-.35,1-.84.86-1.41S226.94,174.45,226.72,173.76Z"/>
      <polygon class="e0df3602-7c12-4e21-bbe5-a8098b0c0612" points="225.52 174.86 225.33 174.73 222.63 176.53 222.58 171.45 222.18 171.45 222.15 174.21 219.47 172.43 219.28 172.56 222.14 174.66 222.03 186.87 222.73 186.87 222.63 176.98 225.52 174.86"/>
    </g>
    <g>
      <path class="ee41649b-73bc-4c48-a270-2d8f50c727dd" d="M224,179.66a2.74,2.74,0,0,0,.19-1,1.12,1.12,0,0,0-.84-.81c-.39-.13-.81-.13-1.21-.24a2.54,2.54,0,0,1-.87-4.51,13.2,13.2,0,0,1,1.59-.81,1.54,1.54,0,0,0,.16-2.87,10,10,0,0,1-1.51-1.07,2.49,2.49,0,0,1,.39-3.64,11.11,11.11,0,0,1,1.85-.77,1.76,1.76,0,0,0,1.18-1.47c0-.72-.69-1.21-1.13-1.77a3.11,3.11,0,1,1,5.39-.93c-.19.58-.55,1.09-.8,1.66a2,2,0,0,0,0,1.77c.76,1.26,3,.53,3.92,1.67a2.09,2.09,0,0,1-.11,2.36c-.44.71-1.11,1.26-1.59,2a2.28,2.28,0,0,0-.34,2.37,4.28,4.28,0,0,0,1.42,1.13,1.6,1.6,0,0,1,.88,1.49c-.21,1.07-2,1.12-2.29,2.17-.17.63.32,1.23.47,1.87C231.62,182.08,223.24,183.08,224,179.66Z"/>
      <polygon class="ff108085-466c-4bf2-86f3-48d0ac335033" points="229.45 176.91 229.29 176.8 226.98 178.33 226.94 174 226.6 174 226.57 176.35 224.28 174.83 224.12 174.94 226.57 176.74 226.47 187.18 227.07 187.18 226.99 178.72 229.45 176.91"/>
    </g>
    <g>
      <rect class="b4706f8d-fd63-4ac5-aae7-f2280f62edcc" x="211.16" y="171.34" width="17.08" height="12.16"/>
      <polygon class="a7f7a372-9a4f-44eb-8565-fb488ce1492d" points="211.16 183.5 228.24 183.5 228.24 171.34 211.16 183.5"/>
      <path class="b81ad491-8416-4b2c-a323-0a4b09f393f4" d="M227.74,171.34H211.16v3.94h0v.35h0v3.58h0v.35h0v3.94h17.08V171.34Zm-3,.5v3.44h-3.12v-3.44Zm3,7.37h-2.66v-3.58h2.66Zm-3,0h-3.12v-3.58h3.12Zm-6.59-3.58h3.12v3.58h-3.12Zm-.35,3.58h-3.13v-3.58h3.13Zm3.47-7.37v3.44h-3.12v-3.44Zm-3.47,0v3.44h-3.13v-3.44Zm-6.13,0h2.65v3.44h-2.65Zm0,3.79h2.65v3.58h-2.65Zm0,7.36v-3.43h2.65V183Zm3,0v-3.43h3.13V183Zm3.48,0v-3.43h3.12V183Zm3.47,0v-3.43h3.12V183Zm3.47,0v-3.43h2.66V183Zm2.66-7.71h-2.66v-3.44h2.66Z"/>
      <path class="ed2fc5cc-b346-4ba7-bea8-65c70c0d0750" d="M220.66,187.5h-1.92a1.17,1.17,0,0,0-1.17,1.17h4.26A1.18,1.18,0,0,0,220.66,187.5Z"/>
      <rect class="ed2fc5cc-b346-4ba7-bea8-65c70c0d0750" x="219.4" y="183.24" width="0.59" height="4.5"/>
    </g>
    <g>
      <rect class="e9ccfa6b-5836-430b-92d2-04a6e8d2a943" x="197.13" y="172.79" width="16.05" height="11.43"/>
      <polygon class="a6bad1fc-9dc7-4a8e-8d82-b5dede8a42eb" points="197.13 184.22 213.19 184.22 213.19 172.79 197.13 184.22"/>
      <path class="b719b313-b1f3-4707-a4c7-b9661b1afec4" d="M212.71,172.79H197.13v3.7h0v.33h0v3.37h0v.33h0v3.7h16.06V172.79Zm-2.82.47v3.23H207v-3.23Zm2.82,6.93h-2.49v-3.37h2.49Zm-2.82,0H207v-3.37h2.93Zm-6.2-3.37h2.94v3.37h-2.94Zm-.33,3.37h-2.93v-3.37h2.93Zm3.27-6.93v3.23h-2.94v-3.23Zm-3.27,0v3.23h-2.93v-3.23Zm-5.75,0h2.49v3.23h-2.49Zm0,3.56h2.49v3.37h-2.49Zm0,6.93v-3.23h2.49v3.23Zm2.82,0v-3.23h2.93v3.23Zm3.26,0v-3.23h2.94v3.23Zm3.27,0v-3.23h2.93v3.23Zm3.26,0v-3.23h2.49v3.23Zm2.49-7.26h-2.49v-3.23h2.49Z"/>
      <path class="a55a9381-dbf5-48fe-82a1-aee532c8ec07" d="M206.06,188h-1.8a1.1,1.1,0,0,0-1.1,1.1h4A1.1,1.1,0,0,0,206.06,188Z"/>
      <rect class="a55a9381-dbf5-48fe-82a1-aee532c8ec07" x="204.88" y="183.98" width="0.55" height="4.23"/>
    </g>
    <g>
      <path class="be94a86d-958f-4e00-bf62-d6ea03c6ead7" d="M133.29,148c4.14-3.94,9.8-6.63,15.45-5.89,4.51.58,8.55,3.29,11.52,6.75a41.42,41.42,0,0,1,6.62,11.92A103.14,103.14,0,0,1,171.53,176c.47,2.11,1.24,6-.12,7.7-1.17,1.43-3.17,1.77-5,2-9.07,1-18.68-.29-27.77-1.05-4.49-.38-9.27-1.11-12.62-4.15C115.88,171.33,125.71,155.17,133.29,148Z"/>
      <path class="b0c9110e-60d6-4a78-82fd-7d7794d8a665" d="M165.62,184.19a67.62,67.62,0,0,1-28.78-6.3c-2.5-1.16-5-2.56-6.51-4.88a10.92,10.92,0,0,1-1.48-6.59,33.07,33.07,0,0,1,1.34-6.72l3.27-11.89a1.29,1.29,0,0,0-.17.16c-7.58,7.2-17.41,23.36-7.27,32.54,3.35,3,8.13,3.77,12.62,4.15,9.09.76,18.7,2.1,27.77,1.05a11.83,11.83,0,0,0,3.35-.76,3.84,3.84,0,0,0-1-.48A10.63,10.63,0,0,0,165.62,184.19Z"/>
    </g>
    <g>
      <path class="ab6c1ea5-30f9-4617-bfd7-642bcbd8d91a" d="M158,168.75a2.21,2.21,0,0,1,.85-2,2.72,2.72,0,0,0,1.09-1.91,1.75,1.75,0,0,0-1.24-1.48,15.63,15.63,0,0,0-1.91-.35,2,2,0,0,1-1.55-1.16,2.16,2.16,0,0,1,.63-2.17,9.64,9.64,0,0,1,1.87-1.24,3.13,3.13,0,0,0,1.48-1.72,2.65,2.65,0,0,0-1.44-2.86,5.23,5.23,0,0,0-3.18-.21c-.84.15-1.89.24-2.33-.55a1.87,1.87,0,0,1,0-1.63c.21-.52.54-1,.75-1.49a3.67,3.67,0,0,0-.8-3.91,2.88,2.88,0,0,0-3.89,0,3.64,3.64,0,0,0-.59,4.23c.45.77,1.23,1.44,1.19,2.36s-.92,1.55-1.69,2-1.67,1-1.74,1.94.75,1.68,1.52,2.16,1.64,1,1.83,1.93a3,3,0,0,1-1.23,2.64c-.73.68-1.54,1.27-2.24,2A5.16,5.16,0,0,0,144,168a2.8,2.8,0,0,0,1,2.77,5.12,5.12,0,0,0,1.76.52,2.06,2.06,0,0,1,1.52,1,5.11,5.11,0,0,1,.27,1.42,3.17,3.17,0,0,0,1.49,2.23c.88.5,1.56.19,2.46.12a5.54,5.54,0,0,0,2.54-.36,8.13,8.13,0,0,0,1.29-.91l2.39-1.95c.58-.47,1.24-1.15,1.07-1.92C159.58,169.93,158.3,169.69,158,168.75Z"/>
      <polygon class="aff437f7-f13f-449c-9299-9991c7729290" points="156.53 170.25 156.3 170.07 152.96 172.53 152.89 165.59 152.4 165.59 152.36 169.36 149.04 166.92 148.81 167.1 152.35 169.97 152.21 186.67 153.08 186.67 152.96 173.14 156.53 170.25"/>
    </g>
    <g>
      <path class="a0882ae5-1fdd-47f1-8a0e-1be99e79a61d" d="M127.05,157.35c4.57-2.39,9.82-.71,13.81,3.44s6.79,10.51,8.53,17.33a14.05,14.05,0,0,1,.55,3.32,5.17,5.17,0,0,1-.81,3.09,3,3,0,0,1-1.82,1,71.87,71.87,0,0,1-23.08,1.33,9,9,0,0,1-7.26-4,12.5,12.5,0,0,1-1.74-7.18c.2-4.22,2.66-7.54,4.46-10.48C121.74,161.84,124.16,158.86,127.05,157.35Z"/>
      <path class="a3c3df42-6678-40ed-a810-909316b4e59b" d="M147.06,184.72a5.41,5.41,0,0,0-1.84,0,28.92,28.92,0,0,1-12.14-1.08,14.47,14.47,0,0,1-10.61-13.81,35.83,35.83,0,0,1,.32-5.76,10.46,10.46,0,0,0,0-3.21,30.7,30.7,0,0,0-3.15,4.37c-1.8,2.94-4.26,6.26-4.46,10.48a12.5,12.5,0,0,0,1.74,7.18,9,9,0,0,0,7.26,4,71.87,71.87,0,0,0,23.08-1.33,4.87,4.87,0,0,0,.74-.23A2,2,0,0,0,147.06,184.72Z"/>
    </g>
    <g>
      <path class="ef71a555-d118-43ae-9efa-0a5e333481aa" d="M86.94,167.76c2.08-5.57,5-10.64,8.7-13.62a16.76,16.76,0,0,1,9.74-3.49,13.81,13.81,0,0,1,8.89,2.23c3.4,2.38,6,6.85,7.78,11.85a85.21,85.21,0,0,1,3.52,16.07,10.23,10.23,0,0,1-.11,4.84c-.81,2.18-2.8,2.4-4.47,2.34q-10.62-.39-21.26-.91c-3.51-.18-7-.36-10.52-.56a36.44,36.44,0,0,1-5.32-.31c-1.31-.26-1.45-1.39-1.15-3.23A91,91,0,0,1,86.94,167.76Z"/>
      <path class="b502ec6c-2d94-49a9-bcfb-467e7b373ad9" d="M119,187.41a3.13,3.13,0,0,0-1.54-.4,27.5,27.5,0,0,1-18.74-10A27,27,0,0,1,95,170.78a27.81,27.81,0,0,1-1.84-6.18c-.36-2-.21-4.1-.46-6.14a3.52,3.52,0,0,0-.28-1.05,38.84,38.84,0,0,0-5.51,10.35A91,91,0,0,0,82.74,183c-.3,1.84-.16,3,1.15,3.23a36.44,36.44,0,0,0,5.32.31c3.51.2,7,.38,10.52.56q9.85.48,19.72.85A1.21,1.21,0,0,0,119,187.41Z"/>
      <g>
        <path class="a4d2f77d-6cff-4dd0-9be1-f86dea623606" d="M85.47,184a.2.2,0,0,0,0,.4A.2.2,0,0,0,85.47,184Z"/>
        <path class="a4d2f77d-6cff-4dd0-9be1-f86dea623606" d="M86,182a.38.38,0,0,0,0,.76A.38.38,0,0,0,86,182Z"/>
        <path class="a4d2f77d-6cff-4dd0-9be1-f86dea623606" d="M86.84,183.14a.34.34,0,0,0,0,.68A.34.34,0,0,0,86.84,183.14Z"/>
        <path class="a4d2f77d-6cff-4dd0-9be1-f86dea623606" d="M88.78,183.86a.44.44,0,0,0,0,.87A.44.44,0,0,0,88.78,183.86Z"/>
        <path class="a4d2f77d-6cff-4dd0-9be1-f86dea623606" d="M86.09,184.51a.29.29,0,0,0,0,.57A.29.29,0,0,0,86.09,184.51Z"/>
        <path class="a4d2f77d-6cff-4dd0-9be1-f86dea623606" d="M86.91,182.16a.31.31,0,0,0,0-.62A.31.31,0,0,0,86.91,182.16Z"/>
        <path class="a4d2f77d-6cff-4dd0-9be1-f86dea623606" d="M86.41,179.45a.27.27,0,0,0,0,.54A.27.27,0,0,0,86.41,179.45Z"/>
        <path class="a4d2f77d-6cff-4dd0-9be1-f86dea623606" d="M86.15,178.51a.29.29,0,0,0,0-.58A.29.29,0,0,0,86.15,178.51Z"/>
        <path class="a4d2f77d-6cff-4dd0-9be1-f86dea623606" d="M87.47,177.05a.34.34,0,0,0,0-.67A.34.34,0,0,0,87.47,177.05Z"/>
        <path class="a4d2f77d-6cff-4dd0-9be1-f86dea623606" d="M88.47,178.34a.32.32,0,0,0,0,.64A.32.32,0,0,0,88.47,178.34Z"/>
        <path class="a4d2f77d-6cff-4dd0-9be1-f86dea623606" d="M87.91,180.83a.4.4,0,0,0,0,.79A.4.4,0,0,0,87.91,180.83Z"/>
        <path class="a4d2f77d-6cff-4dd0-9be1-f86dea623606" d="M91,182.18a.36.36,0,0,0,0,.72A.36.36,0,0,0,91,182.18Z"/>
        <path class="a4d2f77d-6cff-4dd0-9be1-f86dea623606" d="M90.35,184.21a.34.34,0,0,0,0,.67A.34.34,0,0,0,90.35,184.21Z"/>
        <path class="a4d2f77d-6cff-4dd0-9be1-f86dea623606" d="M89.22,181.26a.41.41,0,0,0,0,.81A.41.41,0,0,0,89.22,181.26Z"/>
        <path class="a4d2f77d-6cff-4dd0-9be1-f86dea623606" d="M90.6,180a.3.3,0,0,0,0,.59A.3.3,0,0,0,90.6,180Z"/>
        <path class="a4d2f77d-6cff-4dd0-9be1-f86dea623606" d="M93.29,182.34a.33.33,0,0,0,0,.65A.33.33,0,0,0,93.29,182.34Z"/>
        <path class="a4d2f77d-6cff-4dd0-9be1-f86dea623606" d="M93.29,184.3a.31.31,0,0,0,0,.61A.31.31,0,0,0,93.29,184.3Z"/>
        <path class="a4d2f77d-6cff-4dd0-9be1-f86dea623606" d="M91.73,184.27a.27.27,0,0,0,0,.54A.27.27,0,0,0,91.73,184.27Z"/>
        <path class="a4d2f77d-6cff-4dd0-9be1-f86dea623606" d="M96.55,183.57a.41.41,0,0,0,0,.82A.41.41,0,0,0,96.55,183.57Z"/>
        <path class="a4d2f77d-6cff-4dd0-9be1-f86dea623606" d="M99.43,184.63a.35.35,0,0,0,0,.7A.35.35,0,0,0,99.43,184.63Z"/>
        <path class="a4d2f77d-6cff-4dd0-9be1-f86dea623606" d="M102.06,185.37a.24.24,0,0,0,0,.48A.24.24,0,0,0,102.06,185.37Z"/>
        <path class="a4d2f77d-6cff-4dd0-9be1-f86dea623606" d="M94.79,184.69a.36.36,0,0,0,0,.71A.36.36,0,0,0,94.79,184.69Z"/>
        <path class="a4d2f77d-6cff-4dd0-9be1-f86dea623606" d="M94.79,182.47a.32.32,0,0,0,0,.64A.32.32,0,0,0,94.79,182.47Z"/>
        <path class="a4d2f77d-6cff-4dd0-9be1-f86dea623606" d="M99.74,183.44a.22.22,0,0,0,0-.43A.22.22,0,0,0,99.74,183.44Z"/>
        <path class="a4d2f77d-6cff-4dd0-9be1-f86dea623606" d="M97.61,185.15a.27.27,0,0,0,0,.53A.27.27,0,0,0,97.61,185.15Z"/>
        <path class="a4d2f77d-6cff-4dd0-9be1-f86dea623606" d="M92.85,180.42a.31.31,0,0,0,0,.61A.31.31,0,0,0,92.85,180.42Z"/>
        <path class="a4d2f77d-6cff-4dd0-9be1-f86dea623606" d="M90.22,176.58a.33.33,0,0,0,0,.65A.33.33,0,0,0,90.22,176.58Z"/>
        <path class="a4d2f77d-6cff-4dd0-9be1-f86dea623606" d="M88.35,175.46a.38.38,0,0,0,0-.75A.38.38,0,0,0,88.35,175.46Z"/>
        <path class="a4d2f77d-6cff-4dd0-9be1-f86dea623606" d="M89.54,171.91a.36.36,0,0,0,0,.72A.36.36,0,0,0,89.54,171.91Z"/>
        <path class="a4d2f77d-6cff-4dd0-9be1-f86dea623606" d="M88.22,172.06a.29.29,0,0,0,0-.58A.29.29,0,0,0,88.22,172.06Z"/>
        <path class="a4d2f77d-6cff-4dd0-9be1-f86dea623606" d="M87.53,174.41a.32.32,0,0,0,0-.64A.32.32,0,0,0,87.53,174.41Z"/>
        <path class="a4d2f77d-6cff-4dd0-9be1-f86dea623606" d="M90,169.48a.22.22,0,0,0,0-.43A.22.22,0,0,0,90,169.48Z"/>
        <path class="a4d2f77d-6cff-4dd0-9be1-f86dea623606" d="M90.91,168.23a.28.28,0,0,0,0-.55A.28.28,0,0,0,90.91,168.23Z"/>
        <path class="a4d2f77d-6cff-4dd0-9be1-f86dea623606" d="M91.23,174.51a.3.3,0,0,0,0-.59A.3.3,0,0,0,91.23,174.51Z"/>
        <path class="a4d2f77d-6cff-4dd0-9be1-f86dea623606" d="M92.23,176.89a.36.36,0,0,0,0-.72A.36.36,0,0,0,92.23,176.89Z"/>
        <path class="a4d2f77d-6cff-4dd0-9be1-f86dea623606" d="M95.3,177.77a.33.33,0,0,0,0,.65A.33.33,0,0,0,95.3,177.77Z"/>
        <path class="a4d2f77d-6cff-4dd0-9be1-f86dea623606" d="M95.55,180a.26.26,0,0,0,0,.52A.26.26,0,0,0,95.55,180Z"/>
        <path class="a4d2f77d-6cff-4dd0-9be1-f86dea623606" d="M92.16,179.07a.35.35,0,0,0,0-.7A.35.35,0,0,0,92.16,179.07Z"/>
        <path class="a4d2f77d-6cff-4dd0-9be1-f86dea623606" d="M90.66,178a.27.27,0,0,0,0,.54A.27.27,0,0,0,90.66,178Z"/>
        <path class="a4d2f77d-6cff-4dd0-9be1-f86dea623606" d="M89.54,178.66a.31.31,0,0,0,0,.62A.31.31,0,0,0,89.54,178.66Z"/>
        <path class="a4d2f77d-6cff-4dd0-9be1-f86dea623606" d="M89.16,180.72a.31.31,0,0,0,0-.62A.31.31,0,0,0,89.16,180.72Z"/>
        <path class="a4d2f77d-6cff-4dd0-9be1-f86dea623606" d="M87.59,180.21a.37.37,0,0,0,0-.73A.37.37,0,0,0,87.59,180.21Z"/>
        <path class="a4d2f77d-6cff-4dd0-9be1-f86dea623606" d="M85.22,181.08a.27.27,0,0,0,0,.54A.27.27,0,0,0,85.22,181.08Z"/>
        <path class="a4d2f77d-6cff-4dd0-9be1-f86dea623606" d="M88.78,183.21a.36.36,0,0,0,0-.72A.36.36,0,0,0,88.78,183.21Z"/>
        <path class="a4d2f77d-6cff-4dd0-9be1-f86dea623606" d="M85.34,182.86a.31.31,0,0,0,0,.61A.31.31,0,0,0,85.34,182.86Z"/>
        <path class="a4d2f77d-6cff-4dd0-9be1-f86dea623606" d="M87.53,184.7a.38.38,0,0,0,0,.75A.38.38,0,0,0,87.53,184.7Z"/>
        <path class="a4d2f77d-6cff-4dd0-9be1-f86dea623606" d="M90.54,183.24a.37.37,0,0,0,0,.73A.37.37,0,0,0,90.54,183.24Z"/>
        <path class="a4d2f77d-6cff-4dd0-9be1-f86dea623606" d="M91.35,181.3a.33.33,0,0,0,0-.65A.33.33,0,0,0,91.35,181.3Z"/>
        <path class="a4d2f77d-6cff-4dd0-9be1-f86dea623606" d="M92.42,183.43a.3.3,0,0,0,0,.6A.3.3,0,0,0,92.42,183.43Z"/>
        <path class="a4d2f77d-6cff-4dd0-9be1-f86dea623606" d="M90.16,175.79a.27.27,0,0,0,0-.53A.27.27,0,0,0,90.16,175.79Z"/>
        <path class="a4d2f77d-6cff-4dd0-9be1-f86dea623606" d="M88.72,177.18a.34.34,0,0,0,0-.68A.34.34,0,0,0,88.72,177.18Z"/>
        <path class="a4d2f77d-6cff-4dd0-9be1-f86dea623606" d="M86.72,175.37a.16.16,0,0,0,0-.31A.16.16,0,0,0,86.72,175.37Z"/>
        <path class="a4d2f77d-6cff-4dd0-9be1-f86dea623606" d="M89.35,174a.33.33,0,0,0,0-.66A.33.33,0,0,0,89.35,174Z"/>
        <path class="a4d2f77d-6cff-4dd0-9be1-f86dea623606" d="M93.42,178.6a.31.31,0,0,0,0,.62A.31.31,0,0,0,93.42,178.6Z"/>
        <path class="a4d2f77d-6cff-4dd0-9be1-f86dea623606" d="M94.42,180.41a.38.38,0,0,0,0,.75A.38.38,0,0,0,94.42,180.41Z"/>
        <path class="a4d2f77d-6cff-4dd0-9be1-f86dea623606" d="M97.8,182.59a.37.37,0,0,0,0-.73A.37.37,0,0,0,97.8,182.59Z"/>
        <path class="a4d2f77d-6cff-4dd0-9be1-f86dea623606" d="M94.79,183.94a.34.34,0,0,0,0-.67A.34.34,0,0,0,94.79,183.94Z"/>
        <path class="a4d2f77d-6cff-4dd0-9be1-f86dea623606" d="M98.11,183.12a.42.42,0,0,0,0,.84A.42.42,0,0,0,98.11,183.12Z"/>
        <path class="a4d2f77d-6cff-4dd0-9be1-f86dea623606" d="M96.05,180.93a.3.3,0,0,0,0,.59A.3.3,0,0,0,96.05,180.93Z"/>
        <path class="a4d2f77d-6cff-4dd0-9be1-f86dea623606" d="M96.67,184.91a.39.39,0,0,0,0,.77A.39.39,0,0,0,96.67,184.91Z"/>
        <path class="a4d2f77d-6cff-4dd0-9be1-f86dea623606" d="M100.22,185.23a.38.38,0,0,0,0,.75A.38.38,0,0,0,100.22,185.23Z"/>
        <path class="a4d2f77d-6cff-4dd0-9be1-f86dea623606" d="M100.87,183.91a.38.38,0,0,0,0,.76A.38.38,0,0,0,100.87,183.91Z"/>
      </g>
    </g>
    <g>
      <path class="a4070aa1-11b8-4be2-808e-e36541110daf" d="M134.09,173.49a1.86,1.86,0,0,0-.57-1.56,2.28,2.28,0,0,1-.72-1.5,1.34,1.34,0,0,1,.83-1.15,8.82,8.82,0,0,1,1.26-.27,1.42,1.42,0,0,0,1-.91,1.9,1.9,0,0,0-.42-1.69,6,6,0,0,0-1.24-1,2.33,2.33,0,0,1-1-1.35,2.16,2.16,0,0,1,1-2.23,3,3,0,0,1,2.11-.16c.55.11,1.24.19,1.54-.43a1.77,1.77,0,0,0,0-1.28c-.15-.4-.36-.75-.5-1.16a3.24,3.24,0,0,1,.53-3.06,1.71,1.71,0,0,1,2.58,0,3.24,3.24,0,0,1,.39,3.31c-.3.6-.81,1.12-.79,1.84a2,2,0,0,0,1.12,1.54,2,2,0,0,1,1.15,1.51,2.05,2.05,0,0,1-1,1.69,2.5,2.5,0,0,0-1.22,1.51,2.54,2.54,0,0,0,.82,2.06c.48.54,1,1,1.48,1.57a4.3,4.3,0,0,1,1,2.09,2.43,2.43,0,0,1-.68,2.17,3.09,3.09,0,0,1-1.16.4,1.38,1.38,0,0,0-1,.77,5,5,0,0,0-.18,1.11,2.5,2.5,0,0,1-1,1.74c-.59.39-1,.15-1.64.1a3.29,3.29,0,0,1-1.68-.28,4.78,4.78,0,0,1-.85-.72l-1.59-1.52a1.78,1.78,0,0,1-.71-1.5C133.06,174.41,133.91,174.22,134.09,173.49Z"/>
      <polygon class="b4dbd001-a5ff-4205-b316-ce02d9e5b037" points="135.08 174.66 135.24 174.52 137.45 176.44 137.5 171.02 137.82 171.02 137.85 173.97 140.04 172.06 140.2 172.21 137.85 174.45 137.95 187.49 137.37 187.49 137.45 176.92 135.08 174.66"/>
    </g>
    <g>
      <path class="bdc883ef-6b42-4c7a-9d17-0863f9622a8a" d="M138.57,174.62a5.25,5.25,0,0,0,.29-1.64,1.81,1.81,0,0,0-1.29-1.38c-.6-.21-1.24-.22-1.85-.39a4.24,4.24,0,0,1-2.85-3.35,4.61,4.61,0,0,1,1.51-4.27,18.88,18.88,0,0,1,2.44-1.38,3.07,3.07,0,0,0,1.63-2.27,3.23,3.23,0,0,0-1.39-2.58,16.66,16.66,0,0,1-2.31-1.8,4.52,4.52,0,0,1,.6-6.16,17.7,17.7,0,0,1,2.83-1.3,2.93,2.93,0,0,0,1.81-2.48c0-1.21-1.05-2-1.73-3a5.86,5.86,0,0,1,.15-6.66,4.58,4.58,0,0,1,6-1.14,5.7,5.7,0,0,1,2.16,6.23c-.3,1-.85,1.85-1.22,2.8a3.65,3.65,0,0,0-.05,3c1.15,2.12,4.59.89,6,2.82a3.85,3.85,0,0,1-.16,4c-.69,1.2-1.71,2.13-2.45,3.3a4.12,4.12,0,0,0-.51,4,6.57,6.57,0,0,0,2.17,1.92,2.75,2.75,0,0,1,1.35,2.51c-.32,1.81-3.08,1.89-3.51,3.67-.26,1.07.49,2.08.72,3.15C150.25,178.7,137.41,180.39,138.57,174.62Z"/>
      <polygon class="bd7a45e7-3c4c-445c-ac85-0f1b7aff42ee" points="146.93 169.97 146.68 169.78 143.15 172.37 143.08 165.05 142.56 165.05 142.52 169.03 139.01 166.45 138.76 166.65 142.51 169.68 142.36 187.31 143.28 187.31 143.16 173.03 146.93 169.97"/>
    </g>
  </g>
  <text class="b5e3d7eb-62c9-4e96-88f1-4e513a113a0b" transform="translate(47.3 29.95)">ECO-FRIEND<tspan class="b28f898a-bd02-49f3-80c3-189d7ad9a6ad" x="161.06" y="0">L</tspan><tspan x="171.35" y="0">Y</tspan><tspan class="fdf23637-d1d2-4046-beb1-4b97a81701d9"><tspan x="66.25" y="27.85">SCU</tspan></tspan></text>
</svg>
